<svg width="284" height="102" viewBox="0 0 284 102" fill="none" xmlns="http://www.w3.org/2000/svg">
<g class="isolate">

<path d="M21.272 35.048C20.312 35.208 19.144 35.288 17.768 35.288C17.416 35.288 16.856 35.256 16.088 35.192C15.32 35.128 14.76 35.096 14.408 35.096C13.48 33.944 12.664 32.728 11.96 31.448C11.288 30.136 10.504 28.472 9.608 26.456C8.808 24.696 8.312 23.624 8.12 23.24C8.088 23.688 8.072 24.36 8.072 25.256C8.072 26.824 8.12 28.408 8.216 30.008C8.28 32.12 8.312 33.704 8.312 34.76C8.216 34.984 7.752 35.144 6.92 35.24C6.12 35.368 5.208 35.432 4.184 35.432C2.36 35.432 1.24 35.224 0.824 34.808C0.632 31.448 0.536 28.072 0.536 24.68C0.536 22.12 0.6 18.248 0.728 13.064C0.856 7.944 0.92 4.088 0.92 1.496L1.16 1.208C2.568 1.208 3.624 1.224 4.328 1.256L7.592 1.304C7.592 1.304 7.672 1.384 7.832 1.544C7.896 3.912 7.928 7.464 7.928 12.2L8.888 10.856L10.04 9.176L11.432 6.632C11.56 6.376 11.928 5.688 12.536 4.568C13.144 3.416 13.784 2.36 14.456 1.4L14.696 1.256C15.272 1.352 15.848 1.4 16.424 1.4L18.248 1.352C18.664 1.32 19.272 1.304 20.072 1.304C20.872 1.304 21.32 1.448 21.416 1.736C21 3.176 20.456 4.552 19.784 5.864C19.112 7.144 18.168 8.808 16.952 10.856C16.056 12.36 15.32 13.624 14.744 14.648C14.2 15.672 13.704 16.712 13.256 17.768L21.464 34.712L21.272 35.048ZM17.768 34.808C18.92 34.808 19.96 34.744 20.888 34.616L12.824 17.864V17.672C13.528 15.912 14.76 13.608 16.52 10.76C17.736 8.648 18.664 6.984 19.304 5.768C19.944 4.552 20.472 3.24 20.888 1.832C20.248 1.768 19.768 1.736 19.448 1.736L17.816 1.784C17.048 1.848 16.488 1.88 16.136 1.88C15.784 1.88 15.32 1.848 14.744 1.784C13.816 3.096 12.936 4.568 12.104 6.2L11.48 7.496C10.84 8.776 10.264 9.864 9.752 10.76C9.24 11.624 8.648 12.392 7.976 13.064L7.928 13.208L7.448 13.064V13.112C7.384 13.112 7.352 11.752 7.352 9.032L7.4 4.856C7.4 3.48 7.384 2.456 7.352 1.784L4.376 1.736C3.704 1.704 2.712 1.688 1.4 1.688C1.4 4.312 1.336 8.216 1.208 13.4C1.08 18.648 1.016 22.584 1.016 25.208C1.016 28.888 1.096 32.024 1.256 34.616C1.704 34.808 2.664 34.904 4.136 34.904C5.96 34.904 7.192 34.792 7.832 34.568C7.832 33.544 7.8 32.008 7.736 29.96C7.64 28.424 7.592 26.872 7.592 25.304C7.592 24.664 7.624 23.704 7.688 22.424L7.592 22.232L8.168 22.28C8.712 23.304 9.368 24.696 10.136 26.456C11 28.376 11.752 29.96 12.392 31.208C13.064 32.424 13.832 33.576 14.696 34.664C15.72 34.76 16.744 34.808 17.768 34.808ZM47.2775 19.928C47.2775 21.304 47.3095 23.336 47.3735 26.024L47.4215 32.12C47.4215 33.144 47.3095 33.96 47.0855 34.568C46.8615 35.144 46.4775 35.432 45.9335 35.432C45.5815 35.432 45.2615 35.368 44.9735 35.24H41.2295C40.9735 35.304 40.7975 35.336 40.7015 35.336C40.0935 35.336 39.7895 34.888 39.7895 33.992C39.7895 33.736 39.8215 33.384 39.8855 32.936C39.0215 33.672 38.0935 34.248 37.1015 34.664C36.1095 35.08 35.1015 35.288 34.0775 35.288C33.0535 35.288 32.1575 35.096 31.3895 34.712C30.4935 34.264 29.6615 33.384 28.8935 32.072C28.1575 30.76 27.5655 29.24 27.1175 27.512C26.7015 25.752 26.4935 24.024 26.4935 22.328C26.4935 20.216 26.8615 18.296 27.5975 16.568C28.3655 14.84 29.4215 13.48 30.7655 12.488C32.1095 11.464 33.6455 10.952 35.3735 10.952C36.4935 10.952 37.3575 11.064 37.9655 11.288C38.5735 11.48 39.1015 11.88 39.5495 12.488C39.5815 12.264 39.6135 12.008 39.6455 11.72C39.7095 11.432 39.7415 11.176 39.7415 10.952L39.8855 10.664C40.1415 10.568 40.6695 10.52 41.4695 10.52C42.1735 10.52 43.2615 10.584 44.7335 10.712C45.5975 10.808 46.3495 10.856 46.9895 10.856L47.2295 11.096V11.288C47.3255 11.576 47.3735 11.976 47.3735 12.488C47.3735 12.776 47.3575 13.032 47.3255 13.256C47.2935 13.448 47.2775 13.624 47.2775 13.784V19.928ZM46.7015 34.52C46.7015 33.592 46.7335 32.136 46.7975 30.152C46.8935 28.648 46.9415 27.16 46.9415 25.688L46.8935 18.584C46.8295 15.384 46.7975 13.016 46.7975 11.48C46.7655 11.448 46.7495 11.4 46.7495 11.336C45.6615 11.336 44.5575 11.288 43.4375 11.192C42.0295 11.128 40.9575 11.096 40.2215 11.096C40.2215 11.384 40.1735 11.704 40.0775 12.056C40.0455 12.184 40.0135 12.328 39.9815 12.488C39.9495 12.616 39.9335 12.792 39.9335 13.016L39.9815 13.304C39.9815 13.336 39.9815 13.352 39.9815 13.352C40.0135 13.352 40.0295 13.352 40.0295 13.352C39.8375 13.416 39.6935 13.448 39.5975 13.448H39.5495L39.5015 13.352C39.0535 12.584 38.5095 12.072 37.8695 11.816C37.2615 11.56 36.4295 11.432 35.3735 11.432C33.7095 11.432 32.2375 11.912 30.9575 12.872C29.7095 13.8 28.7335 15.096 28.0295 16.76C27.3575 18.424 27.0215 20.264 27.0215 22.28C27.0215 24.296 27.2775 26.28 27.7895 28.232C28.3335 30.152 29.1335 31.736 30.1895 32.984C31.2775 34.232 32.5735 34.856 34.0775 34.856C35.1335 34.856 36.1895 34.6 37.2455 34.088C38.3335 33.576 39.2775 32.92 40.0775 32.12C40.1415 32.184 40.2695 32.248 40.4615 32.312C40.4615 32.472 40.4295 32.744 40.3655 33.128C40.3015 33.48 40.2695 33.752 40.2695 33.944C40.2695 34.168 40.2855 34.344 40.3175 34.472C40.3815 34.6 40.4935 34.712 40.6535 34.808H40.9895C41.3735 34.68 42.0775 34.616 43.1015 34.616C44.1255 34.616 44.8295 34.68 45.2135 34.808H46.4135L46.7015 34.52ZM37.4855 17.336C38.3815 17.336 39.0055 17.48 39.3575 17.768C39.7415 18.024 39.9815 18.6 40.0775 19.496C40.2055 20.36 40.2695 21.864 40.2695 24.008C40.2695 25.48 40.0295 26.632 39.5495 27.464C39.0695 28.264 38.2535 28.664 37.1015 28.664C35.5975 28.664 34.4295 28.104 33.5975 26.984C32.7975 25.832 32.3975 24.488 32.3975 22.952C32.3975 22.056 32.5415 21.256 32.8295 20.552L32.7815 20.6C32.9735 19.544 33.5175 18.744 34.4135 18.2C35.3095 17.624 36.3335 17.336 37.4855 17.336ZM39.7415 22.52L39.7895 20.648C39.7895 19.752 39.6775 19.064 39.4535 18.584C39.2615 18.072 38.7815 17.816 38.0135 17.816C36.7975 17.816 35.7415 18.04 34.8455 18.488C33.9815 18.936 33.4535 19.688 33.2615 20.744C33.0055 21.288 32.8775 22.008 32.8775 22.904C32.8775 24.344 33.2295 25.592 33.9335 26.648C34.6695 27.672 35.6935 28.184 37.0055 28.184C38.8615 28.184 39.7895 27 39.7895 24.632L39.7415 22.52ZM86.7616 18.872C86.7616 21.176 86.7136 23.48 86.6176 25.784C86.5536 28.792 86.5216 31.064 86.5216 32.6C86.5216 33.368 86.5696 34.136 86.6656 34.904C86.5376 35.192 85.7056 35.336 84.1696 35.336C84.0096 35.336 83.7056 35.352 83.2576 35.384C82.8416 35.448 82.4736 35.48 82.1536 35.48C80.7776 35.48 80.0896 35.048 80.0896 34.184L80.1376 27.368C80.1376 25.576 80.0416 23.816 79.8496 22.088C79.6896 20.328 79.3216 19.448 78.7456 19.448L78.6976 19.4C78.3136 19.208 77.8656 19.112 77.3536 19.112C76.5856 19.112 75.9616 19.304 75.4816 19.688C75.4816 21.768 75.4336 23.848 75.3376 25.928C75.3056 26.632 75.2736 27.64 75.2416 28.952C75.2096 30.232 75.1936 31.352 75.1936 32.312C75.1936 33.24 75.2576 34.072 75.3856 34.808C75.2576 35.16 74.3776 35.336 72.7456 35.336C72.6176 35.336 72.3456 35.352 71.9296 35.384C71.5456 35.448 71.1776 35.48 70.8256 35.48C69.4816 35.48 68.8096 35.048 68.8096 34.184L68.8576 27.656C68.8576 26.216 68.7936 24.92 68.6656 23.768C68.6016 23.256 68.5696 22.888 68.5696 22.664C68.5056 21.864 68.4256 21.256 68.3296 20.84C68.2336 20.392 68.0256 19.96 67.7056 19.544C67.4496 19.544 66.9536 19.4 66.2176 19.112C65.0016 19.112 64.1856 19.512 63.7696 20.312C63.3536 21.08 63.1456 22.04 63.1456 23.192C63.1456 24.536 63.1936 25.88 63.2896 27.224C63.3536 29.016 63.3856 30.36 63.3856 31.256C63.3856 31.704 63.3536 32.312 63.2896 33.08C63.2256 33.848 63.1936 34.44 63.1936 34.856C63.0976 35.048 62.7776 35.192 62.2336 35.288C61.6896 35.416 61.1616 35.48 60.6496 35.48C60.3616 35.48 59.9296 35.448 59.3536 35.384C58.7776 35.32 58.3296 35.288 58.0096 35.288H56.8096C56.8096 31.864 56.7616 28.424 56.6656 24.968C56.6336 23.848 56.6016 22.232 56.5696 20.12C56.5376 18.008 56.5216 16.152 56.5216 14.552C56.5216 12.216 56.6656 10.984 56.9536 10.856C57.2096 10.856 57.4816 10.888 57.7696 10.952C58.0576 10.984 58.3456 11 58.6336 11C59.0176 11 59.3856 10.952 59.7376 10.856C60.4416 10.728 61.2256 10.664 62.0896 10.664C62.8256 10.664 63.2576 10.728 63.3856 10.856C63.3856 11.4 63.4176 12.184 63.4816 13.208C65.4656 11.736 67.5296 11 69.6736 11C70.7616 11 71.7536 11.192 72.6496 11.576C73.5776 11.928 74.2656 12.472 74.7136 13.208C75.3536 12.888 75.8176 12.632 76.1056 12.44C77.0016 11.96 77.7536 11.608 78.3616 11.384C79.0016 11.128 79.7696 11 80.6656 11C82.5216 11 83.8816 11.304 84.7456 11.912C85.6096 12.52 86.1536 13.352 86.3776 14.408C86.6336 15.464 86.7616 16.952 86.7616 18.872ZM86.1376 34.712C86.0736 33.944 86.0416 33.352 86.0416 32.936C86.0416 31.336 86.0736 28.936 86.1376 25.736C86.2336 23.272 86.2816 20.84 86.2816 18.44C86.2816 16.808 86.1696 15.512 85.9456 14.552C85.7216 13.592 85.2096 12.84 84.4096 12.296C83.6096 11.752 82.3776 11.48 80.7136 11.48C79.6896 11.48 78.6976 11.688 77.7376 12.104C76.7776 12.488 75.7856 13.032 74.7616 13.736L74.3776 13.592C74.1216 12.792 73.5296 12.264 72.6016 12.008C71.6736 11.72 70.7456 11.576 69.8176 11.576C67.7696 11.576 65.6416 12.312 63.4336 13.784L63.0496 13.64C63.0176 13.352 63.0016 12.936 63.0016 12.392C63.0016 11.816 62.9856 11.4 62.9536 11.144C62.5376 11.144 61.8816 11.208 60.9856 11.336C60.2816 11.496 59.6256 11.576 59.0176 11.576C58.6976 11.576 58.3456 11.56 57.9616 11.528C57.6096 11.464 57.3536 11.416 57.1936 11.384C57.0976 13.912 57.0496 16.472 57.0496 19.064C57.0496 21.176 57.0816 24.344 57.1456 28.568C57.2096 31.384 57.2416 33.48 57.2416 34.856C57.7536 34.792 58.2016 34.76 58.5856 34.76C59.0976 34.76 59.5136 34.808 59.8336 34.904C59.9616 34.904 60.3296 34.904 60.9376 34.904C61.5776 34.904 62.1696 34.824 62.7136 34.664L62.7616 32.36C62.8256 31.272 62.8576 30.472 62.8576 29.96C62.8576 29.032 62.8096 28.072 62.7136 27.08C62.6816 26.76 62.6496 26.344 62.6176 25.832C62.5856 25.32 62.5696 24.712 62.5696 24.008C62.5696 22.28 62.8096 20.968 63.2896 20.072C63.7696 19.144 64.6656 18.68 65.9776 18.68C66.9056 18.68 67.4816 18.808 67.7056 19.064C68.4096 19.224 68.8416 20.024 69.0016 21.464C69.1936 22.872 69.2896 24.632 69.2896 26.744V29.72C69.2896 30.36 69.2736 30.856 69.2416 31.208L69.1936 32.936C69.1936 33.64 69.2416 34.28 69.3376 34.856L71.7856 34.904C72.9376 34.904 73.9616 34.84 74.8576 34.712C74.7616 33.944 74.7136 33.176 74.7136 32.408C74.7136 30.968 74.7296 29.72 74.7616 28.664C74.7936 27.608 74.8256 26.712 74.8576 25.976C74.9536 23.864 75.0016 21.736 75.0016 19.592C75.1616 19.272 75.4656 19.032 75.9136 18.872C76.3616 18.712 76.8256 18.632 77.3056 18.632C78.3296 18.632 79.0656 18.984 79.5136 19.688C79.9936 20.36 80.2816 21.24 80.3776 22.328C80.5056 23.384 80.5696 24.856 80.5696 26.744V29.72C80.5696 30.36 80.5536 30.856 80.5216 31.208L80.4736 32.936C80.4736 33.64 80.5216 34.28 80.6176 34.856L83.0656 34.904C84.2176 34.904 85.2416 34.84 86.1376 34.712ZM113.19 12.056C114.406 13.016 115.19 14.376 115.542 16.136C115.894 17.864 116.07 19.896 116.07 22.232C116.07 25.912 115.398 29 114.054 31.496C112.71 33.992 110.438 35.24 107.238 35.24C106.31 35.24 105.478 35.048 104.742 34.664C104.006 34.28 103.446 33.704 103.062 32.936C102.998 33 102.966 33.112 102.966 33.272C102.966 33.432 102.966 33.544 102.966 33.608V34.808L102.918 34.952L102.87 35C102.774 35 102.726 35.048 102.726 35.144C102.054 35.272 101.254 35.336 100.326 35.336L98.2621 35.288C97.3661 35.224 96.6781 35.192 96.1981 35.192C95.8781 35.032 95.7181 33.864 95.7181 31.688C95.7181 28.264 95.8141 23.192 96.0061 16.472C96.0381 15.192 96.0861 12.968 96.1501 9.8C96.2141 6.632 96.2461 3.784 96.2461 1.256L96.3901 0.967998C96.9661 0.775998 97.8621 0.679998 99.0781 0.679998C101.35 0.679998 102.582 0.871999 102.774 1.256V1.784L102.87 3.512C102.998 4.856 103.062 5.912 103.062 6.68C103.062 7.256 103.03 8.216 102.966 9.56L102.918 11.528C103.846 10.952 105.366 10.664 107.478 10.664C108.662 10.664 109.734 10.76 110.694 10.952C111.654 11.144 112.486 11.512 113.19 12.056ZM106.758 34.664C109.734 34.664 111.942 33.64 113.382 31.592C114.854 29.544 115.59 26.344 115.59 21.992C115.59 20.296 115.446 18.712 115.158 17.24C114.87 15.736 114.454 14.52 113.91 13.592C113.302 12.6 112.422 11.944 111.27 11.624C110.118 11.304 108.726 11.144 107.094 11.144C104.854 11.144 103.462 11.496 102.918 12.2L102.438 12.152L102.486 10.424C102.486 8.472 102.406 6.024 102.246 3.08L102.294 1.832V1.448C101.366 1.256 100.422 1.16 99.4621 1.16C98.5981 1.16 97.6861 1.24 96.7261 1.4C96.7261 5.528 96.6461 10.152 96.4861 15.272C96.4541 16.424 96.4061 18.44 96.3421 21.32C96.2781 24.2 96.2461 26.808 96.2461 29.144C96.2461 31.224 96.3101 33.08 96.4381 34.712L98.4061 34.76C99.3021 34.824 99.9901 34.856 100.47 34.856C101.142 34.856 101.814 34.808 102.486 34.712L102.438 33.896C102.438 33.64 102.47 33.32 102.534 32.936C102.63 32.552 102.822 32.36 103.11 32.36C103.334 32.584 103.542 32.84 103.734 33.128C104.15 33.64 104.55 34.024 104.934 34.28C105.35 34.536 105.958 34.664 106.758 34.664ZM110.214 19.784C110.502 20.744 110.646 21.816 110.646 23C110.646 24.056 110.422 25.064 109.974 26.024C109.558 26.952 108.982 27.72 108.246 28.328C107.51 28.904 106.726 29.192 105.894 29.192C104.742 29.192 103.878 28.808 103.302 28.04C102.758 27.24 102.422 26.28 102.294 25.16C102.166 24.008 102.102 22.536 102.102 20.744C102.102 19.304 102.31 18.2 102.726 17.432C103.142 16.632 104.038 16.232 105.414 16.232C106.662 16.232 107.734 16.552 108.63 17.192C109.526 17.8 110.054 18.696 110.214 19.88V19.784ZM105.894 28.664C107.366 28.664 108.422 28.024 109.062 26.744C109.734 25.432 110.07 23.864 110.07 22.04C110.038 21.912 110.006 21.752 109.974 21.56C109.942 21.336 109.926 21.176 109.926 21.08C109.926 20.984 109.91 20.824 109.878 20.6C109.846 20.344 109.798 20.12 109.734 19.928C109.606 18.936 109.11 18.136 108.246 17.528C107.414 16.92 106.47 16.616 105.414 16.616C104.294 16.616 103.558 16.904 103.206 17.48C102.854 18.056 102.678 18.904 102.678 20.024L102.726 21.992L102.678 23.672C102.678 25.08 102.886 26.264 103.302 27.224C103.75 28.184 104.614 28.664 105.894 28.664ZM144.624 19.928C144.624 21.304 144.656 23.336 144.72 26.024L144.768 32.12C144.768 33.144 144.656 33.96 144.432 34.568C144.208 35.144 143.824 35.432 143.28 35.432C142.928 35.432 142.608 35.368 142.32 35.24H138.576C138.32 35.304 138.144 35.336 138.048 35.336C137.44 35.336 137.136 34.888 137.136 33.992C137.136 33.736 137.168 33.384 137.232 32.936C136.368 33.672 135.44 34.248 134.448 34.664C133.456 35.08 132.448 35.288 131.424 35.288C130.4 35.288 129.504 35.096 128.736 34.712C127.84 34.264 127.008 33.384 126.24 32.072C125.504 30.76 124.912 29.24 124.464 27.512C124.048 25.752 123.84 24.024 123.84 22.328C123.84 20.216 124.208 18.296 124.944 16.568C125.712 14.84 126.768 13.48 128.112 12.488C129.456 11.464 130.992 10.952 132.72 10.952C133.84 10.952 134.704 11.064 135.312 11.288C135.92 11.48 136.448 11.88 136.896 12.488C136.928 12.264 136.96 12.008 136.992 11.72C137.056 11.432 137.088 11.176 137.088 10.952L137.232 10.664C137.488 10.568 138.016 10.52 138.816 10.52C139.52 10.52 140.608 10.584 142.08 10.712C142.944 10.808 143.696 10.856 144.336 10.856L144.576 11.096V11.288C144.672 11.576 144.72 11.976 144.72 12.488C144.72 12.776 144.704 13.032 144.672 13.256C144.64 13.448 144.624 13.624 144.624 13.784V19.928ZM144.048 34.52C144.048 33.592 144.08 32.136 144.144 30.152C144.24 28.648 144.288 27.16 144.288 25.688L144.24 18.584C144.176 15.384 144.144 13.016 144.144 11.48C144.112 11.448 144.096 11.4 144.096 11.336C143.008 11.336 141.904 11.288 140.784 11.192C139.376 11.128 138.304 11.096 137.568 11.096C137.568 11.384 137.52 11.704 137.424 12.056C137.392 12.184 137.36 12.328 137.328 12.488C137.296 12.616 137.28 12.792 137.28 13.016L137.328 13.304C137.328 13.336 137.328 13.352 137.328 13.352C137.36 13.352 137.376 13.352 137.376 13.352C137.184 13.416 137.04 13.448 136.944 13.448H136.896L136.848 13.352C136.4 12.584 135.856 12.072 135.216 11.816C134.608 11.56 133.776 11.432 132.72 11.432C131.056 11.432 129.584 11.912 128.304 12.872C127.056 13.8 126.08 15.096 125.376 16.76C124.704 18.424 124.368 20.264 124.368 22.28C124.368 24.296 124.624 26.28 125.136 28.232C125.68 30.152 126.48 31.736 127.536 32.984C128.624 34.232 129.92 34.856 131.424 34.856C132.48 34.856 133.536 34.6 134.592 34.088C135.68 33.576 136.624 32.92 137.424 32.12C137.488 32.184 137.616 32.248 137.808 32.312C137.808 32.472 137.776 32.744 137.712 33.128C137.648 33.48 137.616 33.752 137.616 33.944C137.616 34.168 137.632 34.344 137.664 34.472C137.728 34.6 137.84 34.712 138 34.808H138.336C138.72 34.68 139.424 34.616 140.448 34.616C141.472 34.616 142.176 34.68 142.56 34.808H143.76L144.048 34.52ZM134.832 17.336C135.728 17.336 136.352 17.48 136.704 17.768C137.088 18.024 137.328 18.6 137.424 19.496C137.552 20.36 137.616 21.864 137.616 24.008C137.616 25.48 137.376 26.632 136.896 27.464C136.416 28.264 135.6 28.664 134.448 28.664C132.944 28.664 131.776 28.104 130.944 26.984C130.144 25.832 129.744 24.488 129.744 22.952C129.744 22.056 129.888 21.256 130.176 20.552L130.128 20.6C130.32 19.544 130.864 18.744 131.76 18.2C132.656 17.624 133.68 17.336 134.832 17.336ZM137.088 22.52L137.136 20.648C137.136 19.752 137.024 19.064 136.8 18.584C136.608 18.072 136.128 17.816 135.36 17.816C134.144 17.816 133.088 18.04 132.192 18.488C131.328 18.936 130.8 19.688 130.608 20.744C130.352 21.288 130.224 22.008 130.224 22.904C130.224 24.344 130.576 25.592 131.28 26.648C132.016 27.672 133.04 28.184 134.352 28.184C136.208 28.184 137.136 27 137.136 24.632L137.088 22.52ZM20.312 89.024C19.096 90.368 17.688 91.296 16.088 91.808C14.52 92.288 12.696 92.528 10.616 92.528C9.976 92.528 8.952 92.496 7.544 92.432H6.344C2.952 92.432 1.144 92.24 0.92 91.856C0.856 90 0.824 87.2 0.824 83.456L0.872 68.144C0.872 63.984 0.84 60.848 0.776 58.736C1.256 58.256 2.376 57.904 4.136 57.68C5.896 57.456 7.64 57.344 9.368 57.344C12.312 57.344 14.52 57.872 15.992 58.928L16.952 59.6C17.432 59.92 17.736 60.16 17.864 60.32C18.024 60.448 18.232 60.704 18.488 61.088C18.744 61.44 19 61.792 19.256 62.144C19.704 62.752 19.992 63.456 20.12 64.256C20.248 65.024 20.312 65.936 20.312 66.992C20.312 68.752 20.008 70.272 19.4 71.552C18.792 72.8 17.704 73.824 16.136 74.624C16.04 74.688 15.944 74.752 15.848 74.816C15.784 74.848 15.704 74.896 15.608 74.96C15.608 75.024 15.64 75.056 15.704 75.056C17.912 76.08 19.448 77.28 20.312 78.656C21.176 80.032 21.608 81.92 21.608 84.32V85.04C21.576 85.2 21.496 85.6 21.368 86.24C21.272 86.848 21.128 87.392 20.936 87.872C20.776 88.352 20.568 88.736 20.312 89.024ZM21.032 84.272C21.032 82.672 20.824 81.264 20.408 80.048C19.992 78.832 19.224 77.808 18.104 76.976C17.88 76.816 17.48 76.608 16.904 76.352C16.36 76.128 15.944 75.92 15.656 75.728C15.368 75.536 15.144 75.296 14.984 75.008C14.984 74.848 15.112 74.656 15.368 74.432C15.624 74.176 16.008 73.872 16.52 73.52C16.968 73.168 17.416 72.8 17.864 72.416C18.312 72.032 18.648 71.664 18.872 71.312C19.576 70.096 19.928 68.72 19.928 67.184C19.928 65.296 19.448 63.648 18.488 62.24C17.56 60.832 16.264 59.76 14.6 59.024C12.968 58.256 11.128 57.872 9.08 57.872C6.904 57.872 4.328 58.224 1.352 58.928C1.416 60.976 1.448 64.064 1.448 68.192L1.4 83.312C1.4 86.992 1.432 89.744 1.496 91.568C1.752 91.632 1.976 91.664 2.168 91.664L3.128 91.616L5.96 91.76C8.008 91.888 9.624 91.952 10.808 91.952C12.856 91.952 14.648 91.728 16.184 91.28C17.752 90.8 18.968 89.936 19.832 88.688C20.152 88.208 20.376 87.792 20.504 87.44C20.632 87.056 20.728 86.64 20.792 86.192C20.888 85.712 20.968 85.312 21.032 84.992V84.272ZM14.6 68.288C14.6 69.568 13.944 70.576 12.632 71.312C11.32 72.016 9.864 72.368 8.264 72.368C7.592 72.368 7.16 72.24 6.968 71.984C6.776 71.728 6.68 71.312 6.68 70.736C6.68 70.224 6.712 69.456 6.776 68.432L6.824 66.176L6.776 65.12C6.904 64.832 7.224 64.624 7.736 64.496C8.28 64.368 8.84 64.304 9.416 64.304C10.44 64.304 11.4 64.512 12.296 64.928C13.224 65.312 13.864 65.872 14.216 66.608C14.472 67.28 14.6 67.84 14.6 68.288ZM9.32 64.88C8.584 64.88 7.928 65.008 7.352 65.264L7.4 66.368L7.352 68.192C7.288 69.024 7.256 69.648 7.256 70.064L7.208 70.832C7.208 71.12 7.272 71.344 7.4 71.504C7.56 71.632 7.864 71.696 8.312 71.696C9.752 71.696 11.064 71.408 12.248 70.832C13.432 70.256 14.024 69.424 14.024 68.336C14.024 67.824 13.912 67.328 13.688 66.848C13.4 66.24 12.824 65.76 11.96 65.408C11.128 65.056 10.248 64.88 9.32 64.88ZM14.312 82.544C14.312 83.824 13.864 84.704 12.968 85.184C12.072 85.664 10.824 85.904 9.224 85.904C8.808 85.904 8.12 85.872 7.16 85.808C6.68 84.88 6.44 83.2 6.44 80.768C6.44 80.032 6.472 79.424 6.536 78.944C6.632 78.432 6.792 77.952 7.016 77.504C8.456 77.504 9.544 77.536 10.28 77.6C11.016 77.664 11.72 77.92 12.392 78.368C13.064 78.784 13.592 79.472 13.976 80.432C14.2 81.2 14.312 81.904 14.312 82.544ZM7.304 78.08C7.112 78.944 7.016 79.84 7.016 80.768C7.016 81.664 7.16 83.152 7.448 85.232C8.888 85.328 9.704 85.376 9.896 85.376C11.048 85.376 11.96 85.168 12.632 84.752C13.304 84.336 13.64 83.536 13.64 82.352C13.64 81.68 13.56 81.088 13.4 80.576C13.08 79.744 12.616 79.152 12.008 78.8C11.432 78.448 10.824 78.24 10.184 78.176C9.576 78.112 8.616 78.08 7.304 78.08ZM49.9025 76.928C49.9025 78.304 49.9345 80.336 49.9985 83.024L50.0465 89.12C50.0465 90.144 49.9345 90.96 49.7105 91.568C49.4865 92.144 49.1025 92.432 48.5585 92.432C48.2065 92.432 47.8865 92.368 47.5985 92.24H43.8545C43.5985 92.304 43.4225 92.336 43.3265 92.336C42.7185 92.336 42.4145 91.888 42.4145 90.992C42.4145 90.736 42.4465 90.384 42.5105 89.936C41.6465 90.672 40.7185 91.248 39.7265 91.664C38.7345 92.08 37.7265 92.288 36.7025 92.288C35.6785 92.288 34.7825 92.096 34.0145 91.712C33.1185 91.264 32.2865 90.384 31.5185 89.072C30.7825 87.76 30.1905 86.24 29.7425 84.512C29.3265 82.752 29.1185 81.024 29.1185 79.328C29.1185 77.216 29.4865 75.296 30.2225 73.568C30.9905 71.84 32.0465 70.48 33.3905 69.488C34.7345 68.464 36.2705 67.952 37.9985 67.952C39.1185 67.952 39.9825 68.064 40.5905 68.288C41.1985 68.48 41.7265 68.88 42.1745 69.488C42.2065 69.264 42.2385 69.008 42.2705 68.72C42.3345 68.432 42.3665 68.176 42.3665 67.952L42.5105 67.664C42.7665 67.568 43.2945 67.52 44.0945 67.52C44.7985 67.52 45.8865 67.584 47.3585 67.712C48.2225 67.808 48.9745 67.856 49.6145 67.856L49.8545 68.096V68.288C49.9505 68.576 49.9985 68.976 49.9985 69.488C49.9985 69.776 49.9825 70.032 49.9505 70.256C49.9185 70.448 49.9025 70.624 49.9025 70.784V76.928ZM49.3265 91.52C49.3265 90.592 49.3585 89.136 49.4225 87.152C49.5185 85.648 49.5665 84.16 49.5665 82.688L49.5185 75.584C49.4545 72.384 49.4225 70.016 49.4225 68.48C49.3905 68.448 49.3745 68.4 49.3745 68.336C48.2865 68.336 47.1825 68.288 46.0625 68.192C44.6545 68.128 43.5825 68.096 42.8465 68.096C42.8465 68.384 42.7985 68.704 42.7025 69.056C42.6705 69.184 42.6385 69.328 42.6065 69.488C42.5745 69.616 42.5585 69.792 42.5585 70.016L42.6065 70.304C42.6065 70.336 42.6065 70.352 42.6065 70.352C42.6385 70.352 42.6545 70.352 42.6545 70.352C42.4625 70.416 42.3185 70.448 42.2225 70.448H42.1745L42.1265 70.352C41.6785 69.584 41.1345 69.072 40.4945 68.816C39.8865 68.56 39.0545 68.432 37.9985 68.432C36.3345 68.432 34.8625 68.912 33.5825 69.872C32.3345 70.8 31.3585 72.096 30.6545 73.76C29.9825 75.424 29.6465 77.264 29.6465 79.28C29.6465 81.296 29.9025 83.28 30.4145 85.232C30.9585 87.152 31.7585 88.736 32.8145 89.984C33.9025 91.232 35.1985 91.856 36.7025 91.856C37.7585 91.856 38.8145 91.6 39.8705 91.088C40.9585 90.576 41.9025 89.92 42.7025 89.12C42.7665 89.184 42.8945 89.248 43.0865 89.312C43.0865 89.472 43.0545 89.744 42.9905 90.128C42.9265 90.48 42.8945 90.752 42.8945 90.944C42.8945 91.168 42.9105 91.344 42.9425 91.472C43.0065 91.6 43.1185 91.712 43.2785 91.808H43.6145C43.9985 91.68 44.7025 91.616 45.7265 91.616C46.7505 91.616 47.4545 91.68 47.8385 91.808H49.0385L49.3265 91.52ZM40.1105 74.336C41.0065 74.336 41.6305 74.48 41.9825 74.768C42.3665 75.024 42.6065 75.6 42.7025 76.496C42.8305 77.36 42.8945 78.864 42.8945 81.008C42.8945 82.48 42.6545 83.632 42.1745 84.464C41.6945 85.264 40.8785 85.664 39.7265 85.664C38.2225 85.664 37.0545 85.104 36.2225 83.984C35.4225 82.832 35.0225 81.488 35.0225 79.952C35.0225 79.056 35.1665 78.256 35.4545 77.552L35.4065 77.6C35.5985 76.544 36.1425 75.744 37.0385 75.2C37.9345 74.624 38.9585 74.336 40.1105 74.336ZM42.3665 79.52L42.4145 77.648C42.4145 76.752 42.3025 76.064 42.0785 75.584C41.8865 75.072 41.4065 74.816 40.6385 74.816C39.4225 74.816 38.3665 75.04 37.4705 75.488C36.6065 75.936 36.0785 76.688 35.8865 77.744C35.6305 78.288 35.5025 79.008 35.5025 79.904C35.5025 81.344 35.8545 82.592 36.5585 83.648C37.2945 84.672 38.3185 85.184 39.6305 85.184C41.4865 85.184 42.4145 84 42.4145 81.632L42.3665 79.52ZM66.6346 57.056C66.6346 61.408 66.5546 66.336 66.3946 71.84C66.3626 73.056 66.3146 75.216 66.2506 78.32C66.1866 81.424 66.1546 84.224 66.1546 86.72C66.1546 88.416 66.2506 90.08 66.4426 91.712C66.4426 91.936 66.2026 92.096 65.7226 92.192C65.2426 92.32 64.7306 92.384 64.1866 92.384C63.7386 92.384 62.9386 92.352 61.7866 92.288C60.6346 92.224 59.7386 92.192 59.0986 92.192L59.1946 90.656C59.2266 90.016 59.2746 88.88 59.3386 87.248C59.4026 85.584 59.4346 84.128 59.4346 82.88C59.4346 81.024 59.3706 78.208 59.2426 74.432C59.1146 70.72 59.0506 67.92 59.0506 66.032C59.0506 62.224 59.1786 59.184 59.4346 56.912C59.4666 56.88 59.5146 56.88 59.5786 56.912C59.6426 56.912 59.6906 56.896 59.7226 56.864L66.2506 57.008L66.6346 57.056ZM59.9146 57.344C59.6266 59.744 59.4826 62.528 59.4826 65.696C59.4826 67.584 59.5466 70.416 59.6746 74.192C59.8346 77.392 59.9146 80.256 59.9146 82.784C59.9146 85.44 59.8346 88.416 59.6746 91.712L60.3946 91.664C61.0026 91.664 61.6106 91.712 62.2186 91.808C62.4426 91.84 62.6986 91.872 62.9866 91.904C63.3066 91.936 63.6746 91.952 64.0906 91.952C64.8266 91.952 65.4346 91.84 65.9146 91.616C65.7546 90.336 65.6746 88.784 65.6746 86.96L65.7226 83.984C65.7546 83.344 65.7706 82.368 65.7706 81.056C65.7706 78.464 65.8026 74.544 65.8666 69.296C65.9626 65.36 66.0106 61.424 66.0106 57.488L59.9146 57.344ZM95.5813 76.928C95.5813 78.304 95.6133 80.336 95.6773 83.024L95.7253 89.12C95.7253 90.144 95.6133 90.96 95.3893 91.568C95.1653 92.144 94.7813 92.432 94.2373 92.432C93.8853 92.432 93.5653 92.368 93.2773 92.24H89.5333C89.2773 92.304 89.1013 92.336 89.0053 92.336C88.3973 92.336 88.0933 91.888 88.0933 90.992C88.0933 90.736 88.1253 90.384 88.1893 89.936C87.3253 90.672 86.3973 91.248 85.4053 91.664C84.4133 92.08 83.4053 92.288 82.3813 92.288C81.3573 92.288 80.4613 92.096 79.6933 91.712C78.7973 91.264 77.9653 90.384 77.1973 89.072C76.4613 87.76 75.8693 86.24 75.4213 84.512C75.0053 82.752 74.7973 81.024 74.7973 79.328C74.7973 77.216 75.1653 75.296 75.9013 73.568C76.6693 71.84 77.7253 70.48 79.0693 69.488C80.4133 68.464 81.9493 67.952 83.6773 67.952C84.7973 67.952 85.6613 68.064 86.2693 68.288C86.8773 68.48 87.4053 68.88 87.8533 69.488C87.8853 69.264 87.9173 69.008 87.9493 68.72C88.0133 68.432 88.0453 68.176 88.0453 67.952L88.1893 67.664C88.4453 67.568 88.9733 67.52 89.7733 67.52C90.4773 67.52 91.5653 67.584 93.0373 67.712C93.9013 67.808 94.6533 67.856 95.2933 67.856L95.5333 68.096V68.288C95.6293 68.576 95.6773 68.976 95.6773 69.488C95.6773 69.776 95.6613 70.032 95.6293 70.256C95.5973 70.448 95.5813 70.624 95.5813 70.784V76.928ZM95.0053 91.52C95.0053 90.592 95.0373 89.136 95.1013 87.152C95.1973 85.648 95.2453 84.16 95.2453 82.688L95.1973 75.584C95.1333 72.384 95.1013 70.016 95.1013 68.48C95.0693 68.448 95.0533 68.4 95.0533 68.336C93.9653 68.336 92.8613 68.288 91.7413 68.192C90.3333 68.128 89.2613 68.096 88.5253 68.096C88.5253 68.384 88.4773 68.704 88.3813 69.056C88.3493 69.184 88.3173 69.328 88.2853 69.488C88.2533 69.616 88.2373 69.792 88.2373 70.016L88.2853 70.304C88.2853 70.336 88.2853 70.352 88.2853 70.352C88.3173 70.352 88.3333 70.352 88.3333 70.352C88.1413 70.416 87.9973 70.448 87.9013 70.448H87.8533L87.8053 70.352C87.3573 69.584 86.8133 69.072 86.1733 68.816C85.5653 68.56 84.7333 68.432 83.6773 68.432C82.0133 68.432 80.5413 68.912 79.2613 69.872C78.0133 70.8 77.0373 72.096 76.3333 73.76C75.6613 75.424 75.3253 77.264 75.3253 79.28C75.3253 81.296 75.5813 83.28 76.0933 85.232C76.6373 87.152 77.4373 88.736 78.4933 89.984C79.5813 91.232 80.8773 91.856 82.3813 91.856C83.4373 91.856 84.4933 91.6 85.5493 91.088C86.6373 90.576 87.5813 89.92 88.3813 89.12C88.4453 89.184 88.5733 89.248 88.7653 89.312C88.7653 89.472 88.7333 89.744 88.6693 90.128C88.6053 90.48 88.5733 90.752 88.5733 90.944C88.5733 91.168 88.5893 91.344 88.6213 91.472C88.6853 91.6 88.7973 91.712 88.9573 91.808H89.2933C89.6773 91.68 90.3813 91.616 91.4053 91.616C92.4293 91.616 93.1333 91.68 93.5173 91.808H94.7173L95.0053 91.52ZM85.7893 74.336C86.6853 74.336 87.3093 74.48 87.6613 74.768C88.0453 75.024 88.2853 75.6 88.3813 76.496C88.5093 77.36 88.5733 78.864 88.5733 81.008C88.5733 82.48 88.3333 83.632 87.8533 84.464C87.3733 85.264 86.5573 85.664 85.4053 85.664C83.9013 85.664 82.7333 85.104 81.9013 83.984C81.1013 82.832 80.7013 81.488 80.7013 79.952C80.7013 79.056 80.8453 78.256 81.1333 77.552L81.0853 77.6C81.2773 76.544 81.8213 75.744 82.7173 75.2C83.6133 74.624 84.6373 74.336 85.7893 74.336ZM88.0453 79.52L88.0933 77.648C88.0933 76.752 87.9813 76.064 87.7573 75.584C87.5653 75.072 87.0853 74.816 86.3173 74.816C85.1013 74.816 84.0453 75.04 83.1493 75.488C82.2853 75.936 81.7573 76.688 81.5653 77.744C81.3093 78.288 81.1813 79.008 81.1813 79.904C81.1813 81.344 81.5333 82.592 82.2373 83.648C82.9733 84.672 83.9973 85.184 85.3093 85.184C87.1653 85.184 88.0933 84 88.0933 81.632L88.0453 79.52ZM123.833 75.68C123.833 77.216 123.801 79.52 123.737 82.592C123.641 84.928 123.593 87.264 123.593 89.6C123.593 90.368 123.641 91.136 123.737 91.904C123.609 92.192 122.777 92.336 121.241 92.336C121.081 92.336 120.777 92.352 120.329 92.384C119.913 92.448 119.545 92.48 119.225 92.48C117.849 92.48 117.161 92.048 117.161 91.184L117.209 84.656C117.209 83.216 117.145 81.92 117.017 80.768C116.953 80.256 116.921 79.888 116.921 79.664C116.857 78.864 116.777 78.256 116.681 77.84C116.585 77.392 116.377 76.96 116.057 76.544C115.801 76.544 115.305 76.4 114.569 76.112C113.353 76.112 112.537 76.512 112.121 77.312C111.705 78.08 111.497 79.04 111.497 80.192C111.497 81.536 111.545 82.88 111.641 84.224C111.705 86.016 111.737 87.36 111.737 88.256C111.737 88.704 111.705 89.312 111.641 90.08C111.577 90.848 111.545 91.44 111.545 91.856C111.449 92.048 111.113 92.208 110.537 92.336C109.961 92.464 109.449 92.512 109.001 92.48L105.161 92.336C105.161 88.848 105.113 85.408 105.017 82.016C104.985 80.864 104.953 79.232 104.921 77.12C104.889 75.008 104.873 73.152 104.873 71.552C104.873 69.216 105.017 67.984 105.305 67.856C105.561 67.856 105.833 67.888 106.121 67.952C106.409 67.984 106.697 68 106.985 68C107.401 68 107.769 67.952 108.089 67.856C108.793 67.728 109.577 67.664 110.441 67.664C111.177 67.664 111.609 67.728 111.737 67.856C111.737 68.4 111.769 69.184 111.833 70.208C112.697 69.568 113.657 69.04 114.713 68.624C115.769 68.208 116.777 68 117.737 68C119.529 68 120.857 68.32 121.721 68.96C122.617 69.568 123.193 70.4 123.449 71.456C123.705 72.512 123.833 73.92 123.833 75.68ZM123.209 91.712C123.145 90.944 123.113 90.352 123.113 89.936C123.113 88.336 123.145 85.936 123.209 82.736C123.305 80.272 123.353 77.84 123.353 75.44C123.353 73.808 123.241 72.512 123.017 71.552C122.793 70.592 122.281 69.84 121.481 69.296C120.681 68.752 119.449 68.48 117.785 68.48C116.761 68.48 115.801 68.688 114.905 69.104C114.009 69.488 112.969 70.048 111.785 70.784L111.401 70.64C111.369 70.352 111.353 69.936 111.353 69.392C111.353 68.816 111.337 68.4 111.305 68.144C110.889 68.144 110.233 68.208 109.337 68.336C108.633 68.496 107.977 68.576 107.369 68.576C107.049 68.576 106.697 68.56 106.313 68.528C105.961 68.464 105.705 68.416 105.545 68.384C105.449 70.912 105.401 73.472 105.401 76.064C105.401 78.176 105.433 81.344 105.497 85.568C105.561 88.384 105.593 90.48 105.593 91.856C106.105 91.792 106.553 91.76 106.937 91.76C107.449 91.76 107.865 91.808 108.185 91.904C108.313 91.904 108.681 91.904 109.289 91.904C109.929 91.904 110.521 91.824 111.065 91.664L111.113 89.36C111.177 88.272 111.209 87.472 111.209 86.96C111.209 86.032 111.161 85.072 111.065 84.08C111.033 83.76 111.001 83.344 110.969 82.832C110.937 82.32 110.921 81.712 110.921 81.008C110.921 79.28 111.161 77.968 111.641 77.072C112.121 76.144 113.017 75.68 114.329 75.68C115.257 75.68 115.833 75.808 116.057 76.064C116.761 76.224 117.193 77.024 117.353 78.464C117.545 79.872 117.641 81.632 117.641 83.744V86.72C117.641 87.36 117.625 87.856 117.593 88.208L117.545 89.936C117.545 90.64 117.593 91.28 117.689 91.856L120.137 91.904C121.289 91.904 122.313 91.84 123.209 91.712ZM145.587 101.888C143.315 101.888 141.507 101.824 140.163 101.696C138.851 101.568 137.571 101.12 136.323 100.352C135.107 99.616 134.275 98.416 133.827 96.752C133.571 95.856 133.443 95.184 133.443 94.736C133.443 94.16 133.699 93.792 134.211 93.632C134.755 93.472 135.683 93.392 136.995 93.392C138.531 93.392 139.555 93.52 140.067 93.776C140.067 94.64 140.355 95.312 140.931 95.792C141.507 96.272 142.131 96.512 142.803 96.512C143.571 96.512 144.211 96.224 144.723 95.648C145.235 95.104 145.491 94.304 145.491 93.248C145.491 92.992 145.459 92.72 145.395 92.432C145.331 92.176 145.299 91.936 145.299 91.712L145.347 91.424C144.515 92 143.299 92.288 141.699 92.288C139.651 92.288 137.971 92.08 136.659 91.664C135.379 91.216 134.323 90.224 133.491 88.688C132.691 87.12 132.291 84.768 132.291 81.632C132.291 77.344 132.979 73.984 134.355 71.552C135.731 69.088 137.955 67.856 141.027 67.856C141.955 67.856 142.803 68.032 143.571 68.384C144.339 68.704 144.947 69.2 145.395 69.872V69.296C145.331 69.104 145.299 68.96 145.299 68.864C145.299 68.416 145.443 68.112 145.731 67.952C146.019 67.792 146.435 67.712 146.979 67.712H148.131L150.051 67.664C151.395 67.664 152.195 67.792 152.451 68.048C152.579 71.888 152.643 74.784 152.643 76.736V84.56C152.643 86.064 152.579 88.32 152.451 91.328C152.451 92.064 152.419 93.2 152.355 94.736C152.355 94.992 152.339 95.584 152.307 96.512C152.275 97.472 152.067 98.24 151.683 98.816C151.299 99.424 150.675 100.032 149.811 100.64C148.627 101.472 147.219 101.888 145.587 101.888ZM149.523 100.256C150.291 99.712 150.835 99.184 151.155 98.672C151.475 98.192 151.667 97.728 151.731 97.28C151.795 96.832 151.843 95.968 151.875 94.688L151.971 91.472C152.099 88.4 152.163 86.08 152.163 84.512V76.88C152.163 73.68 152.099 70.816 151.971 68.288L149.763 68.24C149.283 68.208 148.547 68.192 147.555 68.192C146.403 68.192 145.827 68.352 145.827 68.672C145.827 68.864 145.843 69.072 145.875 69.296C145.939 69.488 145.971 69.68 145.971 69.872C145.971 70.096 145.939 70.256 145.875 70.352C145.811 70.448 145.715 70.56 145.587 70.688H145.491C145.363 70.72 145.203 70.64 145.011 70.448C144.851 70.256 144.691 70.048 144.531 69.824C144.211 69.376 143.923 69.072 143.667 68.912C142.867 68.496 141.987 68.288 141.027 68.288C138.147 68.288 136.051 69.472 134.739 71.84C133.427 74.208 132.771 77.456 132.771 81.584C132.771 84.56 133.139 86.8 133.875 88.304C134.611 89.776 135.587 90.736 136.803 91.184C138.019 91.6 139.571 91.808 141.459 91.808C142.419 91.808 143.219 91.744 143.859 91.616C144.531 91.456 145.107 91.136 145.587 90.656L145.971 90.944C145.907 91.2 145.875 91.392 145.875 91.52C145.875 91.744 145.891 91.968 145.923 92.192C145.987 92.416 146.019 92.656 146.019 92.912C146.019 94.256 145.715 95.264 145.107 95.936C144.499 96.64 143.683 96.992 142.659 96.992C141.859 96.992 141.155 96.736 140.547 96.224C139.971 95.744 139.683 95.056 139.683 94.16C138.051 93.904 136.899 93.776 136.227 93.776C135.491 93.776 134.915 93.824 134.499 93.92C134.115 94.048 133.923 94.32 133.923 94.736C133.923 95.216 134.051 95.84 134.307 96.608C134.723 98.016 135.427 99.072 136.419 99.776C137.443 100.48 138.579 100.928 139.827 101.12C141.075 101.312 142.547 101.408 144.243 101.408H145.347C145.827 101.408 146.179 101.392 146.403 101.36C147.491 101.36 148.531 100.992 149.523 100.256ZM137.859 81.008C137.859 79.312 138.163 77.712 138.771 76.208C139.411 74.672 140.483 73.872 141.987 73.808C143.267 73.808 144.195 74.128 144.771 74.768C145.379 75.408 145.763 76.272 145.923 77.36C146.083 78.448 146.163 80 146.163 82.016C146.163 83.232 146.083 84.176 145.923 84.848C145.795 85.52 145.475 86.032 144.963 86.384C144.483 86.704 143.715 86.864 142.659 86.864C141.123 86.864 139.939 86.272 139.107 85.088C138.275 83.904 137.859 82.576 137.859 81.104V81.008ZM142.755 86.48C143.907 86.48 144.707 86.128 145.155 85.424C145.603 84.688 145.827 83.632 145.827 82.256C145.827 81.584 145.763 80.768 145.635 79.808C145.571 79.232 145.539 78.88 145.539 78.752C145.539 78.624 145.491 78.096 145.395 77.168C145.299 76.24 144.995 75.52 144.483 75.008C143.971 74.496 143.235 74.24 142.275 74.24C140.867 74.24 139.859 74.96 139.251 76.4C138.643 77.808 138.339 79.36 138.339 81.056C138.339 82.528 138.755 83.808 139.587 84.896C140.451 85.952 141.507 86.48 142.755 86.48ZM181.865 76.928C181.865 78.304 181.897 80.336 181.961 83.024L182.009 89.12C182.009 90.144 181.897 90.96 181.673 91.568C181.449 92.144 181.065 92.432 180.521 92.432C180.169 92.432 179.849 92.368 179.561 92.24H175.817C175.561 92.304 175.385 92.336 175.289 92.336C174.681 92.336 174.377 91.888 174.377 90.992C174.377 90.736 174.409 90.384 174.473 89.936C173.609 90.672 172.681 91.248 171.689 91.664C170.697 92.08 169.689 92.288 168.665 92.288C167.641 92.288 166.745 92.096 165.977 91.712C165.081 91.264 164.249 90.384 163.481 89.072C162.745 87.76 162.153 86.24 161.705 84.512C161.289 82.752 161.081 81.024 161.081 79.328C161.081 77.216 161.449 75.296 162.185 73.568C162.953 71.84 164.009 70.48 165.353 69.488C166.697 68.464 168.233 67.952 169.961 67.952C171.081 67.952 171.945 68.064 172.553 68.288C173.161 68.48 173.689 68.88 174.137 69.488C174.169 69.264 174.201 69.008 174.233 68.72C174.297 68.432 174.329 68.176 174.329 67.952L174.473 67.664C174.729 67.568 175.257 67.52 176.057 67.52C176.761 67.52 177.849 67.584 179.321 67.712C180.185 67.808 180.937 67.856 181.577 67.856L181.817 68.096V68.288C181.913 68.576 181.961 68.976 181.961 69.488C181.961 69.776 181.945 70.032 181.913 70.256C181.881 70.448 181.865 70.624 181.865 70.784V76.928ZM181.289 91.52C181.289 90.592 181.321 89.136 181.385 87.152C181.481 85.648 181.529 84.16 181.529 82.688L181.481 75.584C181.417 72.384 181.385 70.016 181.385 68.48C181.353 68.448 181.337 68.4 181.337 68.336C180.249 68.336 179.145 68.288 178.025 68.192C176.617 68.128 175.545 68.096 174.809 68.096C174.809 68.384 174.761 68.704 174.665 69.056C174.633 69.184 174.601 69.328 174.569 69.488C174.537 69.616 174.521 69.792 174.521 70.016L174.569 70.304C174.569 70.336 174.569 70.352 174.569 70.352C174.601 70.352 174.617 70.352 174.617 70.352C174.425 70.416 174.281 70.448 174.185 70.448H174.137L174.089 70.352C173.641 69.584 173.097 69.072 172.457 68.816C171.849 68.56 171.017 68.432 169.961 68.432C168.297 68.432 166.825 68.912 165.545 69.872C164.297 70.8 163.321 72.096 162.617 73.76C161.945 75.424 161.609 77.264 161.609 79.28C161.609 81.296 161.865 83.28 162.377 85.232C162.921 87.152 163.721 88.736 164.777 89.984C165.865 91.232 167.161 91.856 168.665 91.856C169.721 91.856 170.777 91.6 171.833 91.088C172.921 90.576 173.865 89.92 174.665 89.12C174.729 89.184 174.857 89.248 175.049 89.312C175.049 89.472 175.017 89.744 174.953 90.128C174.889 90.48 174.857 90.752 174.857 90.944C174.857 91.168 174.873 91.344 174.905 91.472C174.969 91.6 175.081 91.712 175.241 91.808H175.577C175.961 91.68 176.665 91.616 177.689 91.616C178.713 91.616 179.417 91.68 179.801 91.808H181.001L181.289 91.52ZM172.073 74.336C172.969 74.336 173.593 74.48 173.945 74.768C174.329 75.024 174.569 75.6 174.665 76.496C174.793 77.36 174.857 78.864 174.857 81.008C174.857 82.48 174.617 83.632 174.137 84.464C173.657 85.264 172.841 85.664 171.689 85.664C170.185 85.664 169.017 85.104 168.185 83.984C167.385 82.832 166.985 81.488 166.985 79.952C166.985 79.056 167.129 78.256 167.417 77.552L167.369 77.6C167.561 76.544 168.105 75.744 169.001 75.2C169.897 74.624 170.921 74.336 172.073 74.336ZM174.329 79.52L174.377 77.648C174.377 76.752 174.265 76.064 174.041 75.584C173.849 75.072 173.369 74.816 172.601 74.816C171.385 74.816 170.329 75.04 169.433 75.488C168.569 75.936 168.041 76.688 167.849 77.744C167.593 78.288 167.465 79.008 167.465 79.904C167.465 81.344 167.817 82.592 168.521 83.648C169.257 84.672 170.281 85.184 171.593 85.184C173.449 85.184 174.377 84 174.377 81.632L174.329 79.52ZM210.117 75.68C210.117 77.216 210.085 79.52 210.021 82.592C209.925 84.928 209.877 87.264 209.877 89.6C209.877 90.368 209.925 91.136 210.021 91.904C209.893 92.192 209.061 92.336 207.525 92.336C207.365 92.336 207.061 92.352 206.613 92.384C206.197 92.448 205.829 92.48 205.509 92.48C204.133 92.48 203.445 92.048 203.445 91.184L203.493 84.656C203.493 83.216 203.429 81.92 203.301 80.768C203.237 80.256 203.205 79.888 203.205 79.664C203.141 78.864 203.061 78.256 202.965 77.84C202.869 77.392 202.661 76.96 202.341 76.544C202.085 76.544 201.589 76.4 200.853 76.112C199.637 76.112 198.821 76.512 198.405 77.312C197.989 78.08 197.781 79.04 197.781 80.192C197.781 81.536 197.829 82.88 197.925 84.224C197.989 86.016 198.021 87.36 198.021 88.256C198.021 88.704 197.989 89.312 197.925 90.08C197.861 90.848 197.829 91.44 197.829 91.856C197.733 92.048 197.397 92.208 196.821 92.336C196.245 92.464 195.733 92.512 195.285 92.48L191.445 92.336C191.445 88.848 191.397 85.408 191.301 82.016C191.269 80.864 191.237 79.232 191.205 77.12C191.173 75.008 191.157 73.152 191.157 71.552C191.157 69.216 191.301 67.984 191.589 67.856C191.845 67.856 192.117 67.888 192.405 67.952C192.693 67.984 192.981 68 193.269 68C193.685 68 194.053 67.952 194.373 67.856C195.077 67.728 195.861 67.664 196.725 67.664C197.461 67.664 197.893 67.728 198.021 67.856C198.021 68.4 198.053 69.184 198.117 70.208C198.981 69.568 199.941 69.04 200.997 68.624C202.053 68.208 203.061 68 204.021 68C205.813 68 207.141 68.32 208.005 68.96C208.901 69.568 209.477 70.4 209.733 71.456C209.989 72.512 210.117 73.92 210.117 75.68ZM209.493 91.712C209.429 90.944 209.397 90.352 209.397 89.936C209.397 88.336 209.429 85.936 209.493 82.736C209.589 80.272 209.637 77.84 209.637 75.44C209.637 73.808 209.525 72.512 209.301 71.552C209.077 70.592 208.565 69.84 207.765 69.296C206.965 68.752 205.733 68.48 204.069 68.48C203.045 68.48 202.085 68.688 201.189 69.104C200.293 69.488 199.253 70.048 198.069 70.784L197.685 70.64C197.653 70.352 197.637 69.936 197.637 69.392C197.637 68.816 197.621 68.4 197.589 68.144C197.173 68.144 196.517 68.208 195.621 68.336C194.917 68.496 194.261 68.576 193.653 68.576C193.333 68.576 192.981 68.56 192.597 68.528C192.245 68.464 191.989 68.416 191.829 68.384C191.733 70.912 191.685 73.472 191.685 76.064C191.685 78.176 191.717 81.344 191.781 85.568C191.845 88.384 191.877 90.48 191.877 91.856C192.389 91.792 192.837 91.76 193.221 91.76C193.733 91.76 194.149 91.808 194.469 91.904C194.597 91.904 194.965 91.904 195.573 91.904C196.213 91.904 196.805 91.824 197.349 91.664L197.397 89.36C197.461 88.272 197.493 87.472 197.493 86.96C197.493 86.032 197.445 85.072 197.349 84.08C197.317 83.76 197.285 83.344 197.253 82.832C197.221 82.32 197.205 81.712 197.205 81.008C197.205 79.28 197.445 77.968 197.925 77.072C198.405 76.144 199.301 75.68 200.613 75.68C201.541 75.68 202.117 75.808 202.341 76.064C203.045 76.224 203.477 77.024 203.637 78.464C203.829 79.872 203.925 81.632 203.925 83.744V86.72C203.925 87.36 203.909 87.856 203.877 88.208L203.829 89.936C203.829 90.64 203.877 91.28 203.973 91.856L206.421 91.904C207.573 91.904 208.597 91.84 209.493 91.712ZM239.262 76.928C239.262 78.304 239.294 80.336 239.358 83.024L239.406 89.12C239.406 90.144 239.294 90.96 239.07 91.568C238.846 92.144 238.462 92.432 237.918 92.432C237.566 92.432 237.246 92.368 236.958 92.24H233.214C232.958 92.304 232.782 92.336 232.686 92.336C232.078 92.336 231.774 91.888 231.774 90.992C231.774 90.736 231.806 90.384 231.87 89.936C231.006 90.672 230.078 91.248 229.086 91.664C228.094 92.08 227.086 92.288 226.062 92.288C225.038 92.288 224.142 92.096 223.374 91.712C222.478 91.264 221.646 90.384 220.878 89.072C220.142 87.76 219.55 86.24 219.102 84.512C218.686 82.752 218.478 81.024 218.478 79.328C218.478 77.216 218.846 75.296 219.582 73.568C220.35 71.84 221.406 70.48 222.75 69.488C224.094 68.464 225.63 67.952 227.358 67.952C228.478 67.952 229.342 68.064 229.95 68.288C230.558 68.48 231.086 68.88 231.534 69.488C231.566 69.264 231.598 69.008 231.63 68.72C231.694 68.432 231.726 68.176 231.726 67.952L231.87 67.664C232.126 67.568 232.654 67.52 233.454 67.52C234.158 67.52 235.246 67.584 236.718 67.712C237.582 67.808 238.334 67.856 238.974 67.856L239.214 68.096V68.288C239.31 68.576 239.358 68.976 239.358 69.488C239.358 69.776 239.342 70.032 239.31 70.256C239.278 70.448 239.262 70.624 239.262 70.784V76.928ZM238.686 91.52C238.686 90.592 238.718 89.136 238.782 87.152C238.878 85.648 238.926 84.16 238.926 82.688L238.878 75.584C238.814 72.384 238.782 70.016 238.782 68.48C238.75 68.448 238.734 68.4 238.734 68.336C237.646 68.336 236.542 68.288 235.422 68.192C234.014 68.128 232.942 68.096 232.206 68.096C232.206 68.384 232.158 68.704 232.062 69.056C232.03 69.184 231.998 69.328 231.966 69.488C231.934 69.616 231.918 69.792 231.918 70.016L231.966 70.304C231.966 70.336 231.966 70.352 231.966 70.352C231.998 70.352 232.014 70.352 232.014 70.352C231.822 70.416 231.678 70.448 231.582 70.448H231.534L231.486 70.352C231.038 69.584 230.494 69.072 229.854 68.816C229.246 68.56 228.414 68.432 227.358 68.432C225.694 68.432 224.222 68.912 222.942 69.872C221.694 70.8 220.718 72.096 220.014 73.76C219.342 75.424 219.006 77.264 219.006 79.28C219.006 81.296 219.262 83.28 219.774 85.232C220.318 87.152 221.118 88.736 222.174 89.984C223.262 91.232 224.558 91.856 226.062 91.856C227.118 91.856 228.174 91.6 229.23 91.088C230.318 90.576 231.262 89.92 232.062 89.12C232.126 89.184 232.254 89.248 232.446 89.312C232.446 89.472 232.414 89.744 232.35 90.128C232.286 90.48 232.254 90.752 232.254 90.944C232.254 91.168 232.27 91.344 232.302 91.472C232.366 91.6 232.478 91.712 232.638 91.808H232.974C233.358 91.68 234.062 91.616 235.086 91.616C236.11 91.616 236.814 91.68 237.198 91.808H238.398L238.686 91.52ZM229.47 74.336C230.366 74.336 230.99 74.48 231.342 74.768C231.726 75.024 231.966 75.6 232.062 76.496C232.19 77.36 232.254 78.864 232.254 81.008C232.254 82.48 232.014 83.632 231.534 84.464C231.054 85.264 230.238 85.664 229.086 85.664C227.582 85.664 226.414 85.104 225.582 83.984C224.782 82.832 224.382 81.488 224.382 79.952C224.382 79.056 224.526 78.256 224.814 77.552L224.766 77.6C224.958 76.544 225.502 75.744 226.398 75.2C227.294 74.624 228.318 74.336 229.47 74.336ZM231.726 79.52L231.774 77.648C231.774 76.752 231.662 76.064 231.438 75.584C231.246 75.072 230.766 74.816 229.998 74.816C228.782 74.816 227.726 75.04 226.83 75.488C225.966 75.936 225.438 76.688 225.246 77.744C224.99 78.288 224.862 79.008 224.862 79.904C224.862 81.344 225.214 82.592 225.918 83.648C226.654 84.672 227.678 85.184 228.99 85.184C230.846 85.184 231.774 84 231.774 81.632L231.726 79.52ZM254.699 68.144C254.923 69.776 255.275 71.664 255.755 73.808L256.379 76.976C256.603 78.288 256.859 79.632 257.147 81.008C257.467 82.352 257.803 83.584 258.155 84.704C258.475 83.648 258.699 82.624 258.827 81.632C258.987 80.608 259.179 79.104 259.403 77.12C259.627 74.912 259.851 73.152 260.075 71.84C260.299 70.528 260.667 69.232 261.179 67.952L261.371 67.808L264.299 67.76C264.939 67.728 265.915 67.712 267.227 67.712C268.059 67.712 268.523 67.856 268.619 68.144C267.787 71.088 266.891 74.752 265.931 79.136C265.803 79.584 265.643 80.256 265.451 81.152L265.067 82.88C264.203 86.752 263.307 89.872 262.379 92.24C261.451 94.608 259.899 96.624 257.723 98.288C255.579 99.952 252.587 100.784 248.747 100.784C247.915 100.784 247.307 100.768 246.923 100.736C246.603 100.576 246.395 100.096 246.299 99.296C246.171 98.496 246.107 97.696 246.107 96.896C246.107 95.04 246.283 94.032 246.635 93.872C246.955 93.872 247.467 93.904 248.171 93.968L249.659 94.016C250.651 94.016 251.403 93.84 251.915 93.488C252.459 93.136 252.731 92.448 252.731 91.424C252.731 91.136 252.699 90.832 252.635 90.512C252.571 90.16 252.523 89.904 252.491 89.744C251.819 86.384 251.019 82.912 250.091 79.328C249.163 75.744 248.619 73.664 248.459 73.088C248.139 71.968 247.691 70.288 247.115 68.048L247.403 67.76C248.043 67.856 248.667 67.904 249.275 67.904L251.003 67.856C251.355 67.824 251.899 67.808 252.635 67.808C253.467 67.808 254.091 67.84 254.507 67.904L254.699 68.144ZM254.219 68.384C253.515 68.32 252.971 68.288 252.587 68.288C251.851 68.288 251.307 68.304 250.955 68.336L249.323 68.384C248.587 68.384 248.043 68.352 247.691 68.288C248.171 70.304 248.779 72.56 249.515 75.056C250.699 79.312 251.531 82.608 252.011 84.944C252.203 86 252.523 87.552 252.971 89.6C252.971 89.632 253.003 89.856 253.067 90.272C253.163 90.656 253.211 90.944 253.211 91.136C253.211 92.448 252.907 93.328 252.299 93.776C251.723 94.224 250.859 94.448 249.707 94.448C249.099 94.448 248.635 94.432 248.315 94.4L246.827 94.352C246.667 95.248 246.587 96.08 246.587 96.848C246.587 98.16 246.763 99.296 247.115 100.256C247.499 100.288 248.091 100.304 248.891 100.304C252.539 100.304 255.403 99.488 257.483 97.856C259.563 96.256 261.035 94.32 261.899 92.048C262.795 89.808 263.675 86.8 264.539 83.024L264.971 81.008L265.691 77.888C265.851 77.248 266.171 75.92 266.651 73.904C267.131 71.856 267.611 69.968 268.091 68.24C267.387 68.176 266.859 68.144 266.507 68.144C265.963 68.144 265.115 68.176 263.963 68.24L261.515 68.288C261.035 69.568 260.683 70.912 260.459 72.32C260.235 73.696 260.027 75.344 259.835 77.264C259.675 79.024 259.499 80.544 259.307 81.824C259.115 83.104 258.827 84.336 258.443 85.52H258.011C257.595 84.496 257.259 83.456 257.003 82.4C256.747 81.312 256.459 79.968 256.139 78.368L255.899 77.12L255.371 74.528C254.795 71.712 254.411 69.664 254.219 68.384ZM283.701 59.168C283.829 59.552 283.893 60.288 283.893 61.376L283.845 63.68C283.845 63.968 283.541 64.176 282.933 64.304C282.325 64.432 281.717 64.496 281.109 64.496C278.613 64.496 277.205 64.32 276.885 63.968C276.885 63.296 276.853 62.288 276.789 60.944C276.693 59.92 276.645 58.896 276.645 57.872C276.645 57.52 276.741 57.28 276.933 57.152L283.461 57.296L283.701 57.536V59.168ZM283.173 58.64C283.173 58.256 283.189 57.968 283.221 57.776L277.173 57.632L277.125 58.496C277.125 59.392 277.173 60.272 277.269 61.136C277.333 62.288 277.365 63.168 277.365 63.776L278.805 63.872C280.341 63.968 281.173 64.016 281.301 64.016C282.357 64.016 283.045 63.872 283.365 63.584C283.365 62.656 283.349 61.952 283.317 61.472L283.269 59.408C283.205 59.248 283.173 58.992 283.173 58.64ZM283.893 67.856C283.893 69.68 283.861 72.416 283.797 76.064C283.701 78.784 283.653 81.52 283.653 84.272C283.653 87.024 283.717 89.504 283.845 91.712C283.845 91.936 283.605 92.096 283.125 92.192C282.677 92.32 282.181 92.384 281.637 92.384C281.189 92.384 280.517 92.352 279.621 92.288C278.725 92.224 278.117 92.192 277.797 92.192C277.349 92.192 277.045 92.208 276.885 92.24L276.597 91.952C276.693 90.864 276.741 89.232 276.741 87.056L276.693 80.672C276.629 77.792 276.597 75.632 276.597 74.192C276.597 73.488 276.613 72.224 276.645 70.4C276.709 68.544 276.789 67.616 276.885 67.616V67.76L277.125 67.472L280.341 67.52C281.813 67.584 282.917 67.616 283.653 67.616L283.893 67.856ZM283.173 84.272C283.173 81.552 283.221 78.848 283.317 76.16C283.381 72.576 283.413 69.888 283.413 68.096C282.709 68.096 281.685 68.064 280.341 68L277.365 67.952C277.205 69.84 277.125 72.08 277.125 74.672C277.125 75.984 277.157 77.888 277.221 80.384L277.269 86.144C277.269 87.968 277.221 89.824 277.125 91.712C277.573 91.712 278.277 91.744 279.237 91.808C280.005 91.904 280.757 91.952 281.493 91.952C282.197 91.952 282.821 91.84 283.365 91.616C283.237 89.44 283.173 86.992 283.173 84.272Z" fill="white" fill-opacity="0.14"/>
</g></svg>
