<svg xmlns="http://www.w3.org/2000/svg" width="284" height="101" fill="none" xmlns:v="https://vecta.io/nano"><path d="M13.016 16.768a39.47 39.47 0 0 1 2.016-4.032l2.304-4.032 2.208-4.032c.704-1.344 1.248-2.688 1.632-4.032a15.54 15.54 0 0 0-3.264-.144c-1.152.064-2.24.064-3.264 0l-1.824 2.88-1.536 2.88-1.536 2.832c-.544.928-1.152 1.824-1.824 2.688-.064.064-.128.144-.192.24-.032.064-.048.08-.048.048l-.048-5.76-.048-5.76C6.568.544 5.496.528 4.376.496L1.16.448A416.92 416.92 0 0 1 .92 17.2c-.16 5.536-.112 11.056.144 16.56.416.096.928.176 1.536.24a19.77 19.77 0 0 0 1.968.096c.672 0 1.312-.032 1.92-.096.608-.032 1.136-.112 1.584-.24a97.16 97.16 0 0 0-.048-2.928c0-1.056-.016-2.128-.048-3.216L7.88 24.4c0-1.088.016-2.096.048-3.024.512.896 1.024 1.904 1.536 3.024L11 27.808a82.18 82.18 0 0 0 1.68 3.36c.576 1.056 1.2 1.968 1.872 2.736l3.312.144c1.216.064 2.336-.016 3.36-.24l-8.208-17.04zm33.974-6.672l-2.736-.144-1.968-.096h-.528-.768a2.71 2.71 0 0 0-.72 0c-.192 0-.288.016-.288.048 0 .384-.048.768-.144 1.152-.064.352-.08.784-.048 1.296-.224-.544-.496-.96-.816-1.248-.32-.32-.688-.544-1.104-.672a3.85 3.85 0 0 0-1.392-.24 23.95 23.95 0 0 0-1.584-.048c-1.12.032-2.176.336-3.168.912-.992.544-1.856 1.312-2.592 2.304-.704.96-1.264 2.112-1.68 3.456s-.624 2.816-.624 4.416c0 1.28.128 2.672.384 4.176.288 1.504.72 2.896 1.296 4.176s1.296 2.352 2.16 3.216a4.47 4.47 0 0 0 3.216 1.296c1.12 0 2.256-.272 3.408-.816 1.184-.544 2.16-1.2 2.928-1.968 0 .32-.032.592-.096.816a3.22 3.22 0 0 0-.096.864c0 .256.032.48.096.672.096.192.256.32.48.384A10.14 10.14 0 0 0 41.614 34a5.89 5.89 0 0 1 1.056-.096 12.37 12.37 0 0 1 1.536.096 26.99 26.99 0 0 0 1.584.048h.576c.384-.064.576-.304.576-.72.032-.416.048-.832.048-1.248.224-3.424.272-6.8.144-10.128a155.28 155.28 0 0 1-.048-10.224v-.48a3.5 3.5 0 0 0-.048-.576 3.5 3.5 0 0 0-.048-.576zm-13.968 9.552c.16-.8.608-1.504 1.344-2.112.768-.64 1.808-.96 3.12-.96.672 0 1.168.048 1.488.144.352.096.592.32.72.672.16.352.24.864.24 1.536.032.64.048 1.52.048 2.64 0 .896-.016 1.712-.048 2.448 0 .704-.096 1.312-.288 1.824a2.22 2.22 0 0 1-.864 1.152c-.384.256-.976.384-1.776.384-1.344 0-2.4-.496-3.168-1.488-.736-1.024-1.104-2.256-1.104-3.696 0-.416.016-.832.048-1.248.032-.448.112-.88.24-1.296zm30.268-7.056a17.03 17.03 0 0 1-.048-1.2c.032-.352.016-.8-.048-1.344 0-.096-.128-.144-.384-.144-.256-.032-.544-.032-.864 0a9.93 9.93 0 0 0-.96.144c-.32.032-.544.048-.672.048-.384.032-.704.064-.96.096h-.72-.72c-.256-.032-.576-.064-.96-.096-.128 4.224-.16 8.304-.096 12.24l.144 11.808c.768-.064 1.408-.08 1.92-.048s.976.048 1.392.048a7.51 7.51 0 0 0 1.2 0c.416-.032.896-.128 1.44-.288v-.192c.128-1.056.192-2.112.192-3.168s-.032-2.112-.096-3.168l-.096-3.216a38.3 38.3 0 0 1 .048-3.312c.064-.864.288-1.504.672-1.92.384-.448.816-.736 1.296-.864.48-.16.96-.192 1.44-.096.512.064.896.16 1.152.288.032.032.064.048.096.048s.064.016.096.048c.256.192.448.464.576.816a4.39 4.39 0 0 1 .336 1.2c.096.448.16.912.192 1.392l.096 1.248a37.8 37.8 0 0 1 .096 2.784 46.14 46.14 0 0 1 0 2.976v2.88c0 .928.032 1.76.096 2.496h2.976c.896.032 1.904-.032 3.024-.192-.064-.96-.096-2.064-.096-3.312l.096-3.936.096-4.128c.032-1.408.032-2.736 0-3.984.288-.224.592-.384.912-.48.352-.128.688-.192 1.008-.192.352 0 .672.032.96.096s.528.144.72.24c.032.032.064.048.096.048s.064.016.096.048c.256.192.448.464.576.816a4.39 4.39 0 0 1 .336 1.2c.096.448.16.912.192 1.392l.096 1.248a37.8 37.8 0 0 1 .096 2.784 46.14 46.14 0 0 1 0 2.976v2.88c0 .928.032 1.76.096 2.496h2.976c.896.032 1.904-.032 3.024-.192-.064-1.088-.08-2.352-.048-3.792l.096-4.464.048-4.608c.032-1.536.016-2.944-.048-4.224-.032-1.28-.144-2.368-.336-3.264-.16-.928-.4-1.536-.72-1.824a5.71 5.71 0 0 0-2.256-1.2c-.832-.224-1.696-.32-2.592-.288-.864.032-1.712.192-2.544.48s-1.584.672-2.256 1.152a4.49 4.49 0 0 1-.576.384c-.224.096-.416.192-.576.288-.16-.384-.32-.656-.48-.816a5.71 5.71 0 0 0-2.256-1.2c-.832-.224-1.696-.32-2.592-.288-.864.032-1.712.192-2.544.48s-1.584.672-2.256 1.152a3.54 3.54 0 0 1-.624.384l-.576.336zM102.534.256c0-.032-.224-.064-.672-.096-.416-.064-.944-.096-1.584-.096-.608-.032-1.264-.032-1.968 0-.704 0-1.312.048-1.824.144v3.168l-.096 7.968-.192 7.872-.096 7.584.096 7.152c.992 0 2.08.016 3.264.048 1.184.064 2.256.032 3.216-.096.032-.064.048-.176.048-.336V32.8c.032-.192.048-.464.048-.816a1.03 1.03 0 0 1 .192-.336c.096-.096.192-.048.288.144.48.96 1.12 1.584 1.92 1.872.8.256 1.648.32 2.544.192 1.824-.128 3.264-.592 4.32-1.392a7.56 7.56 0 0 0 2.352-3.12c.544-1.28.896-2.704 1.056-4.272s.272-3.152.336-4.752c0-1.12-.08-2.208-.24-3.264-.128-1.056-.352-2.016-.672-2.88-.288-.896-.688-1.648-1.2-2.256-.48-.64-1.072-1.088-1.776-1.344-.864-.32-1.824-.512-2.88-.576a14.91 14.91 0 0 0-2.928 0c-.928.064-1.712.208-2.352.432s-.992.48-1.056.768l.048-3.648V5.344c0-.576-.016-1.008-.048-1.296 0-.32-.016-.608-.048-.864a9.18 9.18 0 0 0-.048-.912c0-.352-.016-.848-.048-1.488V.256zm7.44 18.624c.16.448.256.912.288 1.392a20.94 20.94 0 0 1 .048 1.392 9.66 9.66 0 0 1-.288 2.352 7.11 7.11 0 0 1-.864 2.016c-.384.576-.848 1.04-1.392 1.392s-1.152.528-1.824.528c-.832 0-1.472-.176-1.92-.528s-.8-.832-1.056-1.44c-.224-.608-.368-1.328-.432-2.16a76.92 76.92 0 0 1-.048-2.832c0-1.248.016-2.224.048-2.928.064-.736.192-1.296.384-1.68s.48-.624.864-.72c.416-.128.96-.192 1.632-.192 1.312 0 2.352.288 3.12.864.8.576 1.28 1.424 1.44 2.544zm34.362-8.784l-2.736-.144-1.968-.096h-.528-.768a2.71 2.71 0 0 0-.72 0c-.192 0-.288.016-.288.048 0 .384-.048.768-.144 1.152-.064.352-.08.784-.048 1.296-.224-.544-.496-.96-.816-1.248-.32-.32-.688-.544-1.104-.672a3.85 3.85 0 0 0-1.392-.24 23.95 23.95 0 0 0-1.584-.048c-1.12.032-2.176.336-3.168.912-.992.544-1.856 1.312-2.592 2.304-.704.96-1.264 2.112-1.68 3.456s-.624 2.816-.624 4.416c0 1.28.128 2.672.384 4.176.288 1.504.72 2.896 1.296 4.176s1.296 2.352 2.16 3.216a4.47 4.47 0 0 0 3.216 1.296c1.12 0 2.256-.272 3.408-.816 1.184-.544 2.16-1.2 2.928-1.968 0 .32-.032.592-.096.816a3.22 3.22 0 0 0-.096.864c0 .256.032.48.096.672.096.192.256.32.48.384A10.14 10.14 0 0 0 138.96 34a5.89 5.89 0 0 1 1.056-.096 12.37 12.37 0 0 1 1.536.096 26.99 26.99 0 0 0 1.584.048h.576c.384-.064.576-.304.576-.72.032-.416.048-.832.048-1.248.224-3.424.272-6.8.144-10.128a155.28 155.28 0 0 1-.048-10.224v-.48a3.5 3.5 0 0 0-.048-.576 3.5 3.5 0 0 0-.048-.576zm-13.968 9.552c.16-.8.608-1.504 1.344-2.112.768-.64 1.808-.96 3.12-.96.672 0 1.168.048 1.488.144.352.096.592.32.72.672.16.352.24.864.24 1.536.032.64.048 1.52.048 2.64 0 .896-.016 1.712-.048 2.448 0 .704-.096 1.312-.288 1.824a2.22 2.22 0 0 1-.864 1.152c-.384.256-.976.384-1.776.384-1.344 0-2.4-.496-3.168-1.488-.736-1.024-1.104-2.256-1.104-3.696 0-.416.016-.832.048-1.248.032-.448.112-.88.24-1.296zM17.96 75.112c-.16-.192-.272-.352-.336-.48s-.032-.304.096-.528c.64-1.088 1.184-2.272 1.632-3.552.48-1.28.72-2.592.72-3.936 0-1.792-.288-3.296-.864-4.512-.576-1.248-1.36-2.256-2.352-3.024-.992-.8-2.144-1.376-3.456-1.728-1.28-.352-2.624-.56-4.032-.624s-2.832 0-4.272.192a30.67 30.67 0 0 0-4.08.816l-.048.048c.096 5.568.096 11.088 0 16.56a314.73 314.73 0 0 0 .144 16.464c.16.064.32.096.48.096h.576a82.02 82.02 0 0 1 3.696.192c1.344.096 2.672.128 3.984.096 1.344 0 2.64-.08 3.888-.24 1.248-.192 2.384-.544 3.408-1.056s1.888-1.232 2.592-2.16c.736-.96 1.232-2.192 1.488-3.696.192-1.024.224-1.952.096-2.784s-.368-1.584-.72-2.256c-.32-.704-.72-1.36-1.2-1.968-.448-.64-.928-1.28-1.44-1.92zm-4.512 7.968c-.32.384-.704.672-1.152.864-.416.16-.88.272-1.392.336a22.38 22.38 0 0 1-1.488.048 20.94 20.94 0 0 0-1.392-.048l-.096-.048c-.256-.384-.432-.864-.528-1.44s-.144-1.168-.144-1.776c.032-.64.096-1.264.192-1.872s.208-1.152.336-1.632a34.2 34.2 0 0 0 1.872.144c.64 0 1.264.08 1.872.24.416.096.816.304 1.2.624.384.288.672.624.864 1.008.224.544.336 1.152.336 1.824.032.672-.128 1.248-.48 1.728zM13.4 69.4c-.256.48-.608.848-1.056 1.104-.416.224-.88.368-1.392.432s-1.04.08-1.584.048a20.96 20.96 0 0 1-1.536-.144c-.288-1.12-.384-2.208-.288-3.264.128-1.056.16-1.952.096-2.688.48-.256 1.072-.368 1.776-.336a10.52 10.52 0 0 1 2.064.192c.512.128.96.336 1.344.624.416.256.752.64 1.008 1.152s.304 1.024.144 1.536A6.53 6.53 0 0 1 13.4 69.4zm36.027-2.304l-2.736-.144-1.968-.096h-.528-.768a2.71 2.71 0 0 0-.72 0c-.192 0-.288.016-.288.048 0 .384-.048.768-.144 1.152-.064.352-.08.784-.048 1.296-.224-.544-.496-.96-.816-1.248-.32-.32-.688-.544-1.104-.672a3.85 3.85 0 0 0-1.392-.24 23.95 23.95 0 0 0-1.584-.048c-1.12.032-2.176.336-3.168.912-.992.544-1.856 1.312-2.592 2.304-.704.96-1.264 2.112-1.68 3.456s-.624 2.816-.624 4.416c0 1.28.128 2.672.384 4.176.288 1.504.72 2.896 1.296 4.176s1.296 2.352 2.16 3.216a4.47 4.47 0 0 0 3.216 1.296c1.12 0 2.256-.272 3.408-.816 1.184-.544 2.16-1.2 2.928-1.968 0 .32-.032.592-.096.816a3.22 3.22 0 0 0-.096.864c0 .256.032.48.096.672.096.192.256.32.48.384A10.14 10.14 0 0 0 44.051 91a5.89 5.89 0 0 1 1.056-.096 12.37 12.37 0 0 1 1.536.096 26.99 26.99 0 0 0 1.584.048h.576c.384-.064.576-.304.576-.72.032-.416.048-.832.048-1.248.224-3.424.272-6.8.144-10.128a155.28 155.28 0 0 1-.048-10.224v-.48a3.5 3.5 0 0 0-.048-.576 3.5 3.5 0 0 0-.048-.576zm-13.968 9.552c.16-.8.608-1.504 1.344-2.112.768-.64 1.808-.96 3.12-.96.672 0 1.168.048 1.488.144.352.096.592.32.72.672.16.352.24.864.24 1.536.032.64.048 1.52.048 2.64 0 .896-.016 1.712-.048 2.448 0 .704-.096 1.312-.288 1.824a2.22 2.22 0 0 1-.864 1.152c-.384.256-.976.384-1.776.384-1.344 0-2.4-.496-3.168-1.488-.736-1.024-1.104-2.256-1.104-3.696 0-.416.016-.832.048-1.248.032-.448.112-.88.24-1.296zm24.076-20.544a88.71 88.71 0 0 0-.432 8.736l.192 8.736.192 8.736a87.25 87.25 0 0 1-.24 8.688c.224-.064.672-.08 1.344-.048a44.46 44.46 0 0 0 2.112.048c.768.032 1.472.032 2.112 0 .64 0 1.04-.096 1.2-.288a147.09 147.09 0 0 1-.144-4.656l-.048-5.952v-6.576l.096-6.576.096-5.952.048-4.752-6.528-.144zm35.571 10.992l-2.736-.144-1.968-.096h-.528-.768a2.71 2.71 0 0 0-.72 0c-.192 0-.288.016-.288.048 0 .384-.048.768-.144 1.152-.064.352-.08.784-.048 1.296-.224-.544-.496-.96-.816-1.248-.32-.32-.688-.544-1.104-.672a3.85 3.85 0 0 0-1.392-.24 23.95 23.95 0 0 0-1.584-.048c-1.12.032-2.176.336-3.168.912-.992.544-1.856 1.312-2.592 2.304-.704.96-1.264 2.112-1.68 3.456s-.624 2.816-.624 4.416c0 1.28.128 2.672.384 4.176.288 1.504.72 2.896 1.296 4.176s1.296 2.352 2.16 3.216a4.47 4.47 0 0 0 3.216 1.296c1.12 0 2.256-.272 3.408-.816 1.184-.544 2.16-1.2 2.928-1.968 0 .32-.032.592-.096.816a3.22 3.22 0 0 0-.096.864c0 .256.032.48.096.672.096.192.256.32.48.384A10.14 10.14 0 0 0 89.73 91a5.89 5.89 0 0 1 1.056-.096 12.37 12.37 0 0 1 1.536.096 26.99 26.99 0 0 0 1.584.048h.576c.384-.064.576-.304.576-.72.032-.416.048-.832.048-1.248.224-3.424.272-6.8.144-10.128a155.28 155.28 0 0 1-.048-10.224v-.48a3.5 3.5 0 0 0-.048-.576 3.5 3.5 0 0 0-.048-.576zm-13.968 9.552c.16-.8.608-1.504 1.344-2.112.768-.64 1.808-.96 3.12-.96.672 0 1.168.048 1.488.144.352.096.592.32.72.672.16.352.24.864.24 1.536.032.64.048 1.52.048 2.64 0 .896-.016 1.712-.048 2.448 0 .704-.096 1.312-.288 1.824a2.22 2.22 0 0 1-.864 1.152c-.384.256-.976.384-1.776.384-1.344 0-2.4-.496-3.168-1.488-.736-1.024-1.104-2.256-1.104-3.696 0-.416.016-.832.048-1.248.032-.448.112-.88.24-1.296zm30.316-7.056a17.03 17.03 0 0 1-.048-1.2c.032-.352.016-.8-.048-1.344 0-.096-.128-.144-.384-.144-.256-.032-.544-.032-.864 0a9.93 9.93 0 0 0-.96.144c-.32.032-.544.048-.672.048-.384.032-.704.064-.96.096h-.72-.72c-.256-.032-.576-.064-.96-.096-.128 4.224-.16 8.304-.096 12.24l.144 11.808c.768-.064 1.408-.08 1.92-.048s.976.048 1.392.048a7.51 7.51 0 0 0 1.2 0c.416-.032.896-.128 1.44-.288v-.192c.128-1.056.192-2.112.192-3.168s-.032-2.112-.096-3.168l-.096-3.216a38.3 38.3 0 0 1 .048-3.312c.064-.864.288-1.504.672-1.92.384-.448.816-.736 1.296-.864.48-.16.96-.192 1.44-.096.512.064.896.16 1.152.288.032.032.064.048.096.048s.064.016.096.048c.256.192.448.464.576.816a4.39 4.39 0 0 1 .336 1.2c.096.448.16.912.192 1.392l.096 1.248a37.8 37.8 0 0 1 .096 2.784 46.14 46.14 0 0 1 0 2.976v2.88c0 .928.032 1.76.096 2.496h2.976c.896.032 1.904-.032 3.024-.192-.064-1.088-.08-2.352-.048-3.792l.096-4.464.048-4.608c.032-1.536.016-2.944-.048-4.224-.032-1.28-.144-2.368-.336-3.264-.16-.928-.4-1.536-.72-1.824a5.71 5.71 0 0 0-2.256-1.2c-.832-.224-1.696-.32-2.592-.288-.864.032-1.712.192-2.544.48s-1.584.672-2.256 1.152a3.54 3.54 0 0 1-.624.384l-.576.336zm26.457 10.032v-.912c0-.32.032-.64.096-.96.128-.736.352-1.424.672-2.064.352-.672.768-1.28 1.248-1.824a3.35 3.35 0 0 1 1.296-.672 3.6 3.6 0 0 1 1.536-.144 3.08 3.08 0 0 1 1.392.528 2.16 2.16 0 0 1 .96 1.104c.32 1.216.496 2.496.528 3.84.064 1.312.096 2.608.096 3.888a10.67 10.67 0 0 1-.144.912 4.19 4.19 0 0 1-.192.864c-.096.256-.224.496-.384.72-.16.192-.384.336-.672.432-.832.256-1.728.32-2.688.192-.96-.16-1.728-.592-2.304-1.296-.96-1.152-1.44-2.544-1.44-4.176v-.432zm8.304 20.976a9.92 9.92 0 0 0 1.248-.192 4.69 4.69 0 0 0 1.344-.528c.448-.224.896-.544 1.344-.96.48-.416.944-.976 1.392-1.68.32-.512.464-1.152.432-1.92-.032-.736-.032-1.488 0-2.256.192-4.608.272-9.088.24-13.44 0-4.384-.064-8.576-.192-12.576a111.02 111.02 0 0 1-3.264-.048c-1.088-.064-2.16-.032-3.216.096-.096.16-.144.384-.144.672.032.256.048.528.048.816.032.256.032.48 0 .672 0 .16-.064.208-.192.144-.384-.896-1.024-1.504-1.92-1.824-.864-.352-1.808-.496-2.832-.432-2.048.128-3.616.72-4.704 1.776-1.088 1.024-1.888 2.304-2.4 3.84-.48 1.504-.752 3.12-.816 4.848s-.096 3.344-.096 4.848a22.2 22.2 0 0 0 .384 2.928 10.39 10.39 0 0 0 .96 2.688c.288.608.656 1.104 1.104 1.488s.944.688 1.488.912c.576.224 1.168.384 1.776.48.64.096 1.264.144 1.872.144a20.27 20.27 0 0 1 1.44-.048 11.25 11.25 0 0 0 1.488-.096c.512-.064.976-.176 1.392-.336a2.81 2.81 0 0 0 1.152-.768c-.064.576-.064 1.136 0 1.68.032.256.032.544 0 .864l-.096 1.008c-.192.896-.608 1.536-1.248 1.92-.608.384-1.248.544-1.92.48-.64-.064-1.232-.352-1.776-.864-.512-.48-.768-1.136-.768-1.968a27.46 27.46 0 0 0-1.44-.192l-1.728-.096a28.62 28.62 0 0 0-1.68.048c-.544.064-.976.16-1.296.288-.032.256-.048.56-.048.912a14.97 14.97 0 0 0 .144 1.104l.288 1.104c.128.384.256.688.384.912.736 1.088 1.696 1.952 2.88 2.592s2.528.96 4.032.96c1.312 0 2.384.016 3.216.048s1.408.016 1.728-.048zm35.175-33.504l-2.736-.144-1.968-.096h-.528-.768a2.71 2.71 0 0 0-.72 0c-.192 0-.288.016-.288.048 0 .384-.048.768-.144 1.152-.064.352-.08.784-.048 1.296-.224-.544-.496-.96-.816-1.248-.32-.32-.688-.544-1.104-.672a3.85 3.85 0 0 0-1.392-.24 23.95 23.95 0 0 0-1.584-.048c-1.12.032-2.176.336-3.168.912-.992.544-1.856 1.312-2.592 2.304-.704.96-1.264 2.112-1.68 3.456s-.624 2.816-.624 4.416c0 1.28.128 2.672.384 4.176.288 1.504.72 2.896 1.296 4.176s1.296 2.352 2.16 3.216a4.47 4.47 0 0 0 3.216 1.296c1.12 0 2.256-.272 3.408-.816 1.184-.544 2.16-1.2 2.928-1.968 0 .32-.032.592-.096.816a3.22 3.22 0 0 0-.096.864c0 .256.032.48.096.672.096.192.256.32.48.384a10.14 10.14 0 0 0 1.008-.048 5.89 5.89 0 0 1 1.056-.096 12.37 12.37 0 0 1 1.536.096 26.99 26.99 0 0 0 1.584.048h.576c.384-.064.576-.304.576-.72.032-.416.048-.832.048-1.248.224-3.424.272-6.8.144-10.128a155.28 155.28 0 0 1-.048-10.224v-.48a3.5 3.5 0 0 0-.048-.576 3.5 3.5 0 0 0-.048-.576zm-13.968 9.552c.16-.8.608-1.504 1.344-2.112.768-.64 1.808-.96 3.12-.96.672 0 1.168.048 1.488.144.352.096.592.32.72.672.16.352.24.864.24 1.536.032.64.048 1.52.048 2.64 0 .896-.016 1.712-.048 2.448 0 .704-.096 1.312-.288 1.824a2.22 2.22 0 0 1-.864 1.152c-.384.256-.976.384-1.776.384-1.344 0-2.4-.496-3.168-1.488-.736-1.024-1.104-2.256-1.104-3.696 0-.416.016-.832.048-1.248.032-.448.112-.88.24-1.296zm30.316-7.056a17.03 17.03 0 0 1-.048-1.2c.032-.352.016-.8-.048-1.344 0-.096-.128-.144-.384-.144-.256-.032-.544-.032-.864 0a9.93 9.93 0 0 0-.96.144c-.32.032-.544.048-.672.048-.384.032-.704.064-.96.096h-.72-.72c-.256-.032-.576-.064-.96-.096-.128 4.224-.16 8.304-.096 12.24l.144 11.808c.768-.064 1.408-.08 1.92-.048s.976.048 1.392.048a7.51 7.51 0 0 0 1.2 0c.416-.032.896-.128 1.44-.288v-.192c.128-1.056.192-2.112.192-3.168s-.032-2.112-.096-3.168l-.096-3.216a38.3 38.3 0 0 1 .048-3.312c.064-.864.288-1.504.672-1.92.384-.448.816-.736 1.296-.864.48-.16.96-.192 1.44-.096.512.064.896.16 1.152.288.032.032.064.048.096.048s.064.016.096.048c.256.192.448.464.576.816a4.39 4.39 0 0 1 .336 1.2c.096.448.16.912.192 1.392l.096 1.248a37.8 37.8 0 0 1 .096 2.784 46.14 46.14 0 0 1 0 2.976v2.88c0 .928.032 1.76.096 2.496h2.976c.896.032 1.904-.032 3.024-.192-.064-1.088-.08-2.352-.048-3.792l.096-4.464.048-4.608c.032-1.536.016-2.944-.048-4.224-.032-1.28-.144-2.368-.336-3.264-.16-.928-.4-1.536-.72-1.824a5.71 5.71 0 0 0-2.256-1.2c-.832-.224-1.696-.32-2.592-.288-.864.032-1.712.192-2.544.48s-1.584.672-2.256 1.152a3.54 3.54 0 0 1-.624.384l-.576.336zm41.049-2.496l-2.736-.144-1.968-.096h-.528-.768a2.71 2.71 0 0 0-.72 0c-.192 0-.288.016-.288.048 0 .384-.048.768-.144 1.152-.064.352-.08.784-.048 1.296-.224-.544-.496-.96-.816-1.248-.32-.32-.688-.544-1.104-.672a3.85 3.85 0 0 0-1.392-.24 23.95 23.95 0 0 0-1.584-.048c-1.12.032-2.176.336-3.168.912-.992.544-1.856 1.312-2.592 2.304-.704.96-1.264 2.112-1.68 3.456s-.624 2.816-.624 4.416c0 1.28.128 2.672.384 4.176.288 1.504.72 2.896 1.296 4.176s1.296 2.352 2.16 3.216a4.47 4.47 0 0 0 3.216 1.296c1.12 0 2.256-.272 3.408-.816 1.184-.544 2.16-1.2 2.928-1.968 0 .32-.032.592-.096.816a3.22 3.22 0 0 0-.096.864c0 .256.032.48.096.672.096.192.256.32.48.384a10.14 10.14 0 0 0 1.008-.048 5.89 5.89 0 0 1 1.056-.096 12.37 12.37 0 0 1 1.536.096 26.99 26.99 0 0 0 1.584.048h.576c.384-.064.576-.304.576-.72.032-.416.048-.832.048-1.248.224-3.424.272-6.8.144-10.128a155.28 155.28 0 0 1-.048-10.224v-.48a3.5 3.5 0 0 0-.048-.576 3.5 3.5 0 0 0-.048-.576zm-13.968 9.552c.16-.8.608-1.504 1.344-2.112.768-.64 1.808-.96 3.12-.96.672 0 1.168.048 1.488.144.352.096.592.32.72.672.16.352.24.864.24 1.536.032.64.048 1.52.048 2.64 0 .896-.016 1.712-.048 2.448 0 .704-.096 1.312-.288 1.824a2.22 2.22 0 0 1-.864 1.152c-.384.256-.976.384-1.776.384-1.344 0-2.4-.496-3.168-1.488-.736-1.024-1.104-2.256-1.104-3.696 0-.416.016-.832.048-1.248.032-.448.112-.88.24-1.296zm29.452-9.504c-1.024-.128-2.176-.144-3.456-.048-1.28.064-2.496.032-3.648-.096l3.024 11.232a137.14 137.14 0 0 1 2.544 11.616c.16 1.056.064 1.824-.288 2.304-.32.48-.8.784-1.44.912-.64.16-1.376.208-2.208.144-.8-.064-1.584-.096-2.352-.096-.16.896-.224 1.936-.192 3.12 0 1.216.16 2.304.48 3.264 2.72.16 5.008-.048 6.864-.624 1.888-.576 3.456-1.424 4.704-2.544a12.53 12.53 0 0 0 3.072-3.888c.768-1.504 1.392-3.088 1.872-4.752a45.39 45.39 0 0 0 1.248-5.088c.352-1.728.736-3.376 1.152-4.944l1.152-5.088 1.392-5.52c-1.344-.096-2.576-.112-3.696-.048a38.3 38.3 0 0 1-3.312.048c-.384.96-.704 2.224-.96 3.792s-.496 3.2-.72 4.896l-.624 4.896c-.224 1.568-.512 2.832-.864 3.792-.352-.96-.704-2.176-1.056-3.648-.352-1.504-.688-3.072-1.008-4.704l-.912-4.8-.768-4.128zm28.379-.288a36.07 36.07 0 0 1-2.64 0l-1.728-.096c-.16 0-.4-.016-.72-.048-.288-.032-.496-.032-.624 0v.048a57.88 57.88 0 0 0-.288 5.856c0 1.984.032 4 .096 6.048l.096 6.192A64.99 64.99 0 0 1 276.65 91c.224-.064.672-.08 1.344-.048a44.46 44.46 0 0 0 2.112.048c.768.032 1.472.032 2.112 0 .64 0 1.04-.096 1.2-.288a145.35 145.35 0 0 1-.192-11.856l.24-11.856v-.144h-.816zm-5.904-10.464c-.032 1.472-.016 2.72.048 3.744.096.992.144 1.952.144 2.88.608-.032 1.264-.016 1.968.048l1.968.096c.64 0 1.184-.032 1.632-.096.48-.064.784-.192.912-.384a31.38 31.38 0 0 0-.048-1.632 32.94 32.94 0 0 0-.048-1.824c0-.608-.016-1.152-.048-1.632v-1.056l-6.528-.144z" fill="#fff"/></svg>