<svg width="284" height="101" viewBox="0 0 284 101" fill="none" xmlns="http://www.w3.org/2000/svg">
<path d="M13.016 16.768C13.592 15.424 14.264 14.08 15.032 12.736C15.8 11.392 16.568 10.048 17.336 8.704C18.136 7.36 18.872 6.016 19.544 4.672C20.248 3.328 20.792 1.984 21.176 0.639997C20.152 0.479998 19.064 0.431998 17.912 0.495999C16.76 0.559999 15.672 0.559999 14.648 0.495999C13.976 1.456 13.368 2.416 12.824 3.376C12.312 4.336 11.8 5.296 11.288 6.256C10.808 7.216 10.296 8.16 9.752 9.088C9.208 10.016 8.6 10.912 7.928 11.776C7.864 11.84 7.8 11.92 7.736 12.016C7.704 12.08 7.688 12.096 7.688 12.064C7.624 10.24 7.608 8.32 7.64 6.304C7.672 4.288 7.656 2.368 7.592 0.543999C6.568 0.543999 5.496 0.527999 4.376 0.495999C3.288 0.431998 2.216 0.415998 1.16 0.447997C1.192 6.048 1.112 11.632 0.92 17.2C0.76 22.736 0.808 28.256 1.064 33.76C1.48 33.856 1.992 33.936 2.6 34C3.24 34.064 3.896 34.096 4.568 34.096C5.24 34.096 5.88 34.064 6.488 34C7.096 33.968 7.624 33.888 8.072 33.76C8.072 32.864 8.056 31.888 8.024 30.832C8.024 29.776 8.008 28.704 7.976 27.616C7.944 26.528 7.912 25.456 7.88 24.4C7.88 23.312 7.896 22.304 7.928 21.376C8.44 22.272 8.952 23.28 9.464 24.4C9.976 25.52 10.488 26.656 11 27.808C11.544 28.96 12.104 30.08 12.68 31.168C13.256 32.224 13.88 33.136 14.552 33.904C15.576 33.936 16.68 33.984 17.864 34.048C19.08 34.112 20.2 34.032 21.224 33.808L13.016 16.768ZM46.9895 10.096C45.9655 10.032 45.0535 9.984 44.2535 9.952C43.4855 9.92 42.8295 9.888 42.2855 9.856C42.1895 9.856 42.0135 9.856 41.7575 9.856C41.5015 9.856 41.2455 9.856 40.9895 9.856C40.7335 9.824 40.4935 9.824 40.2695 9.856C40.0775 9.856 39.9815 9.872 39.9815 9.904C39.9815 10.288 39.9335 10.672 39.8375 11.056C39.7735 11.408 39.7575 11.84 39.7895 12.352C39.5655 11.808 39.2935 11.392 38.9735 11.104C38.6535 10.784 38.2855 10.56 37.8695 10.432C37.4535 10.272 36.9895 10.192 36.4775 10.192C35.9975 10.16 35.4695 10.144 34.8935 10.144C33.7735 10.176 32.7175 10.48 31.7255 11.056C30.7335 11.6 29.8695 12.368 29.1335 13.36C28.4295 14.32 27.8695 15.472 27.4535 16.816C27.0375 18.16 26.8295 19.632 26.8295 21.232C26.8295 22.512 26.9575 23.904 27.2135 25.408C27.5015 26.912 27.9335 28.304 28.5095 29.584C29.0855 30.864 29.8055 31.936 30.6695 32.8C31.5655 33.664 32.6375 34.096 33.8855 34.096C35.0055 34.096 36.1415 33.824 37.2935 33.28C38.4775 32.736 39.4535 32.08 40.2215 31.312C40.2215 31.632 40.1895 31.904 40.1255 32.128C40.0615 32.352 40.0295 32.64 40.0295 32.992C40.0295 33.248 40.0615 33.472 40.1255 33.664C40.2215 33.856 40.3815 33.984 40.6055 34.048C40.9575 34.048 41.2935 34.032 41.6135 34C41.9655 33.936 42.3175 33.904 42.6695 33.904C43.1815 33.904 43.6935 33.936 44.2055 34C44.7495 34.032 45.2775 34.048 45.7895 34.048H46.3655C46.7495 33.984 46.9415 33.744 46.9415 33.328C46.9735 32.912 46.9895 32.496 46.9895 32.08C47.2135 28.656 47.2615 25.28 47.1335 21.952C47.0055 18.592 46.9895 15.184 47.0855 11.728V11.248C47.0855 11.056 47.0695 10.864 47.0375 10.672C47.0375 10.48 47.0215 10.288 46.9895 10.096ZM33.0215 19.648C33.1815 18.848 33.6295 18.144 34.3655 17.536C35.1335 16.896 36.1735 16.576 37.4855 16.576C38.1575 16.576 38.6535 16.624 38.9735 16.72C39.3255 16.816 39.5655 17.04 39.6935 17.392C39.8535 17.744 39.9335 18.256 39.9335 18.928C39.9655 19.568 39.9815 20.448 39.9815 21.568C39.9815 22.464 39.9655 23.28 39.9335 24.016C39.9335 24.72 39.8375 25.328 39.6455 25.84C39.4855 26.32 39.1975 26.704 38.7815 26.992C38.3975 27.248 37.8055 27.376 37.0055 27.376C35.6615 27.376 34.6055 26.88 33.8375 25.888C33.1015 24.864 32.7335 23.632 32.7335 22.192C32.7335 21.776 32.7495 21.36 32.7815 20.944C32.8135 20.496 32.8935 20.064 33.0215 19.648ZM63.2896 12.592C63.2576 12.144 63.2416 11.744 63.2416 11.392C63.2736 11.04 63.2576 10.592 63.1936 10.048C63.1936 9.952 63.0656 9.904 62.8096 9.904C62.5536 9.872 62.2656 9.872 61.9456 9.904C61.6256 9.936 61.3056 9.984 60.9856 10.048C60.6656 10.08 60.4416 10.096 60.3136 10.096C59.9296 10.128 59.6096 10.16 59.3536 10.192C59.0976 10.192 58.8576 10.192 58.6336 10.192C58.4096 10.192 58.1696 10.192 57.9136 10.192C57.6576 10.16 57.3376 10.128 56.9536 10.096C56.8256 14.32 56.7936 18.4 56.8576 22.336C56.9536 26.272 57.0016 30.208 57.0016 34.144C57.7696 34.08 58.4096 34.064 58.9216 34.096C59.4336 34.128 59.8976 34.144 60.3136 34.144C60.7296 34.176 61.1296 34.176 61.5136 34.144C61.9296 34.112 62.4096 34.016 62.9536 33.856V33.664C63.0816 32.608 63.1456 31.552 63.1456 30.496C63.1456 29.44 63.1136 28.384 63.0496 27.328C63.0176 26.24 62.9856 25.168 62.9536 24.112C62.9216 23.024 62.9376 21.92 63.0016 20.8C63.0656 19.936 63.2896 19.296 63.6736 18.88C64.0576 18.432 64.4896 18.144 64.9696 18.016C65.4496 17.856 65.9296 17.824 66.4096 17.92C66.9216 17.984 67.3056 18.08 67.5616 18.208C67.5936 18.24 67.6256 18.256 67.6576 18.256C67.6896 18.256 67.7216 18.272 67.7536 18.304C68.0096 18.496 68.2016 18.768 68.3296 19.12C68.4896 19.472 68.6016 19.872 68.6656 20.32C68.7616 20.768 68.8256 21.232 68.8576 21.712C68.8896 22.16 68.9216 22.576 68.9536 22.96C69.0176 23.824 69.0496 24.752 69.0496 25.744C69.0816 26.736 69.0816 27.728 69.0496 28.72C69.0496 29.712 69.0496 30.672 69.0496 31.6C69.0496 32.528 69.0816 33.36 69.1456 34.096C70.2656 34.096 71.2576 34.096 72.1216 34.096C73.0176 34.128 74.0256 34.064 75.1456 33.904C75.0816 32.944 75.0496 31.84 75.0496 30.592C75.0816 29.312 75.1136 28 75.1456 26.656C75.1776 25.28 75.2096 23.904 75.2416 22.528C75.2736 21.12 75.2736 19.792 75.2416 18.544C75.5296 18.32 75.8336 18.16 76.1536 18.064C76.5056 17.936 76.8416 17.872 77.1616 17.872C77.5136 17.872 77.8336 17.904 78.1216 17.968C78.4096 18.032 78.6496 18.112 78.8416 18.208C78.8736 18.24 78.9056 18.256 78.9376 18.256C78.9696 18.256 79.0016 18.272 79.0336 18.304C79.2896 18.496 79.4816 18.768 79.6096 19.12C79.7696 19.472 79.8816 19.872 79.9456 20.32C80.0416 20.768 80.1056 21.232 80.1376 21.712C80.1696 22.16 80.2016 22.576 80.2336 22.96C80.2976 23.824 80.3296 24.752 80.3296 25.744C80.3616 26.736 80.3616 27.728 80.3296 28.72C80.3296 29.712 80.3296 30.672 80.3296 31.6C80.3296 32.528 80.3616 33.36 80.4256 34.096C81.5456 34.096 82.5376 34.096 83.4016 34.096C84.2976 34.128 85.3056 34.064 86.4256 33.904C86.3616 32.816 86.3456 31.552 86.3776 30.112C86.4096 28.672 86.4416 27.184 86.4736 25.648C86.5056 24.08 86.5216 22.544 86.5216 21.04C86.5536 19.504 86.5376 18.096 86.4736 16.816C86.4416 15.536 86.3296 14.448 86.1376 13.552C85.9776 12.624 85.7376 12.016 85.4176 11.728C84.7456 11.152 83.9936 10.752 83.1616 10.528C82.3296 10.304 81.4656 10.208 80.5696 10.24C79.7056 10.272 78.8576 10.432 78.0256 10.72C77.1936 11.008 76.4416 11.392 75.7696 11.872C75.6096 12 75.4176 12.128 75.1936 12.256C74.9696 12.352 74.7776 12.448 74.6176 12.544C74.4576 12.16 74.2976 11.888 74.1376 11.728C73.4656 11.152 72.7136 10.752 71.8816 10.528C71.0496 10.304 70.1856 10.208 69.2896 10.24C68.4256 10.272 67.5776 10.432 66.7456 10.72C65.9136 11.008 65.1616 11.392 64.4896 11.872C64.3296 12 64.1216 12.128 63.8656 12.256C63.6416 12.384 63.4496 12.496 63.2896 12.592ZM102.534 0.256C102.534 0.223998 102.31 0.191998 101.862 0.159998C101.446 0.0959988 100.918 0.0639992 100.278 0.0639992C99.6701 0.0319996 99.0141 0.0319996 98.3101 0.0639992C97.6061 0.0639992 96.9981 0.111999 96.4861 0.207997V3.376C96.4861 6.032 96.4541 8.688 96.3901 11.344C96.3261 14 96.2621 16.624 96.1981 19.216C96.1661 21.776 96.1341 24.304 96.1021 26.8C96.1021 29.264 96.1341 31.648 96.1981 33.952C97.1901 33.952 98.2781 33.968 99.4621 34C100.646 34.064 101.718 34.032 102.678 33.904C102.71 33.84 102.726 33.728 102.726 33.568C102.726 33.248 102.726 32.992 102.726 32.8C102.758 32.608 102.774 32.336 102.774 31.984C102.838 31.824 102.902 31.712 102.966 31.648C103.062 31.552 103.158 31.6 103.254 31.792C103.734 32.752 104.374 33.376 105.174 33.664C105.974 33.92 106.822 33.984 107.718 33.856C109.542 33.728 110.982 33.264 112.038 32.464C113.094 31.632 113.878 30.592 114.39 29.344C114.934 28.064 115.286 26.64 115.446 25.072C115.606 23.504 115.718 21.92 115.782 20.32C115.782 19.2 115.702 18.112 115.542 17.056C115.414 16 115.19 15.04 114.87 14.176C114.582 13.28 114.182 12.528 113.67 11.92C113.19 11.28 112.598 10.832 111.894 10.576C111.03 10.256 110.07 10.064 109.014 10C107.99 9.904 107.014 9.904 106.086 10C105.158 10.064 104.374 10.208 103.734 10.432C103.094 10.656 102.742 10.912 102.678 11.2C102.71 9.696 102.726 8.48 102.726 7.552C102.726 6.624 102.726 5.888 102.726 5.344C102.726 4.768 102.71 4.336 102.678 4.048C102.678 3.728 102.662 3.44 102.63 3.184C102.63 2.896 102.614 2.592 102.582 2.272C102.582 1.92 102.566 1.424 102.534 0.783998V0.256ZM109.974 18.88C110.134 19.328 110.23 19.792 110.262 20.272C110.294 20.752 110.31 21.216 110.31 21.664C110.31 22.464 110.214 23.248 110.022 24.016C109.83 24.752 109.542 25.424 109.158 26.032C108.774 26.608 108.31 27.072 107.766 27.424C107.222 27.776 106.614 27.952 105.942 27.952C105.11 27.952 104.47 27.776 104.022 27.424C103.574 27.072 103.222 26.592 102.966 25.984C102.742 25.376 102.598 24.656 102.534 23.824C102.502 22.96 102.486 22.016 102.486 20.992C102.486 19.744 102.502 18.768 102.534 18.064C102.598 17.328 102.726 16.768 102.918 16.384C103.11 16 103.398 15.76 103.782 15.664C104.198 15.536 104.742 15.472 105.414 15.472C106.726 15.472 107.766 15.76 108.534 16.336C109.334 16.912 109.814 17.76 109.974 18.88ZM144.336 10.096C143.312 10.032 142.4 9.984 141.6 9.952C140.832 9.92 140.176 9.888 139.632 9.856C139.536 9.856 139.36 9.856 139.104 9.856C138.848 9.856 138.592 9.856 138.336 9.856C138.08 9.824 137.84 9.824 137.616 9.856C137.424 9.856 137.328 9.872 137.328 9.904C137.328 10.288 137.28 10.672 137.184 11.056C137.12 11.408 137.104 11.84 137.136 12.352C136.912 11.808 136.64 11.392 136.32 11.104C136 10.784 135.632 10.56 135.216 10.432C134.8 10.272 134.336 10.192 133.824 10.192C133.344 10.16 132.816 10.144 132.24 10.144C131.12 10.176 130.064 10.48 129.072 11.056C128.08 11.6 127.216 12.368 126.48 13.36C125.776 14.32 125.216 15.472 124.8 16.816C124.384 18.16 124.176 19.632 124.176 21.232C124.176 22.512 124.304 23.904 124.56 25.408C124.848 26.912 125.28 28.304 125.856 29.584C126.432 30.864 127.152 31.936 128.016 32.8C128.912 33.664 129.984 34.096 131.232 34.096C132.352 34.096 133.488 33.824 134.64 33.28C135.824 32.736 136.8 32.08 137.568 31.312C137.568 31.632 137.536 31.904 137.472 32.128C137.408 32.352 137.376 32.64 137.376 32.992C137.376 33.248 137.408 33.472 137.472 33.664C137.568 33.856 137.728 33.984 137.952 34.048C138.304 34.048 138.64 34.032 138.96 34C139.312 33.936 139.664 33.904 140.016 33.904C140.528 33.904 141.04 33.936 141.552 34C142.096 34.032 142.624 34.048 143.136 34.048H143.712C144.096 33.984 144.288 33.744 144.288 33.328C144.32 32.912 144.336 32.496 144.336 32.08C144.56 28.656 144.608 25.28 144.48 21.952C144.352 18.592 144.336 15.184 144.432 11.728V11.248C144.432 11.056 144.416 10.864 144.384 10.672C144.384 10.48 144.368 10.288 144.336 10.096ZM130.368 19.648C130.528 18.848 130.976 18.144 131.712 17.536C132.48 16.896 133.52 16.576 134.832 16.576C135.504 16.576 136 16.624 136.32 16.72C136.672 16.816 136.912 17.04 137.04 17.392C137.2 17.744 137.28 18.256 137.28 18.928C137.312 19.568 137.328 20.448 137.328 21.568C137.328 22.464 137.312 23.28 137.28 24.016C137.28 24.72 137.184 25.328 136.992 25.84C136.832 26.32 136.544 26.704 136.128 26.992C135.744 27.248 135.152 27.376 134.352 27.376C133.008 27.376 131.952 26.88 131.184 25.888C130.448 24.864 130.08 23.632 130.08 22.192C130.08 21.776 130.096 21.36 130.128 20.944C130.16 20.496 130.24 20.064 130.368 19.648ZM17.96 75.112C17.8 74.92 17.688 74.76 17.624 74.632C17.56 74.504 17.592 74.328 17.72 74.104C18.36 73.016 18.904 71.832 19.352 70.552C19.832 69.272 20.072 67.96 20.072 66.616C20.072 64.824 19.784 63.32 19.208 62.104C18.632 60.856 17.848 59.848 16.856 59.08C15.864 58.28 14.712 57.704 13.4 57.352C12.12 57 10.776 56.792 9.368 56.728C7.96 56.664 6.536 56.728 5.096 56.92C3.656 57.112 2.296 57.384 1.016 57.736L0.968 57.784C1.064 63.352 1.064 68.872 0.968 74.344C0.872 79.784 0.92 85.272 1.112 90.808C1.272 90.872 1.432 90.904 1.592 90.904C1.784 90.904 1.976 90.904 2.168 90.904C3.32 90.936 4.552 91 5.864 91.096C7.208 91.192 8.536 91.224 9.848 91.192C11.192 91.192 12.488 91.112 13.736 90.952C14.984 90.76 16.12 90.408 17.144 89.896C18.168 89.384 19.032 88.664 19.736 87.736C20.472 86.776 20.968 85.544 21.224 84.04C21.416 83.016 21.448 82.088 21.32 81.256C21.192 80.424 20.952 79.672 20.6 79C20.28 78.296 19.88 77.64 19.4 77.032C18.952 76.392 18.472 75.752 17.96 75.112ZM13.448 83.08C13.128 83.464 12.744 83.752 12.296 83.944C11.88 84.104 11.416 84.216 10.904 84.28C10.424 84.312 9.928 84.328 9.416 84.328C8.936 84.296 8.472 84.28 8.024 84.28L7.928 84.232C7.672 83.848 7.496 83.368 7.4 82.792C7.304 82.216 7.256 81.624 7.256 81.016C7.288 80.376 7.352 79.752 7.448 79.144C7.544 78.536 7.656 77.992 7.784 77.512C8.392 77.576 9.016 77.624 9.656 77.656C10.296 77.656 10.92 77.736 11.528 77.896C11.944 77.992 12.344 78.2 12.728 78.52C13.112 78.808 13.4 79.144 13.592 79.528C13.816 80.072 13.928 80.68 13.928 81.352C13.96 82.024 13.8 82.6 13.448 83.08ZM13.4 69.4C13.144 69.88 12.792 70.248 12.344 70.504C11.928 70.728 11.464 70.872 10.952 70.936C10.44 71 9.912 71.016 9.368 70.984C8.824 70.952 8.312 70.904 7.832 70.84C7.544 69.72 7.448 68.632 7.544 67.576C7.672 66.52 7.704 65.624 7.64 64.888C8.12 64.632 8.712 64.52 9.416 64.552C10.152 64.552 10.84 64.616 11.48 64.744C11.992 64.872 12.44 65.08 12.824 65.368C13.24 65.624 13.576 66.008 13.832 66.52C14.088 67.032 14.136 67.544 13.976 68.056C13.816 68.568 13.624 69.016 13.4 69.4ZM49.427 67.096C48.403 67.032 47.491 66.984 46.691 66.952C45.923 66.92 45.267 66.888 44.723 66.856C44.627 66.856 44.451 66.856 44.195 66.856C43.939 66.856 43.683 66.856 43.427 66.856C43.171 66.824 42.931 66.824 42.707 66.856C42.515 66.856 42.419 66.872 42.419 66.904C42.419 67.288 42.371 67.672 42.275 68.056C42.211 68.408 42.195 68.84 42.227 69.352C42.003 68.808 41.731 68.392 41.411 68.104C41.091 67.784 40.723 67.56 40.307 67.432C39.891 67.272 39.427 67.192 38.915 67.192C38.435 67.16 37.907 67.144 37.331 67.144C36.211 67.176 35.155 67.48 34.163 68.056C33.171 68.6 32.307 69.368 31.571 70.36C30.867 71.32 30.307 72.472 29.891 73.816C29.475 75.16 29.267 76.632 29.267 78.232C29.267 79.512 29.395 80.904 29.651 82.408C29.939 83.912 30.371 85.304 30.947 86.584C31.523 87.864 32.243 88.936 33.107 89.8C34.003 90.664 35.075 91.096 36.323 91.096C37.443 91.096 38.579 90.824 39.731 90.28C40.915 89.736 41.891 89.08 42.659 88.312C42.659 88.632 42.627 88.904 42.563 89.128C42.499 89.352 42.467 89.64 42.467 89.992C42.467 90.248 42.499 90.472 42.563 90.664C42.659 90.856 42.819 90.984 43.043 91.048C43.395 91.048 43.731 91.032 44.051 91C44.403 90.936 44.755 90.904 45.107 90.904C45.619 90.904 46.131 90.936 46.643 91C47.187 91.032 47.715 91.048 48.227 91.048H48.803C49.187 90.984 49.379 90.744 49.379 90.328C49.411 89.912 49.427 89.496 49.427 89.08C49.651 85.656 49.699 82.28 49.571 78.952C49.443 75.592 49.427 72.184 49.523 68.728V68.248C49.523 68.056 49.507 67.864 49.475 67.672C49.475 67.48 49.459 67.288 49.427 67.096ZM35.459 76.648C35.619 75.848 36.067 75.144 36.803 74.536C37.571 73.896 38.611 73.576 39.923 73.576C40.595 73.576 41.091 73.624 41.411 73.72C41.763 73.816 42.003 74.04 42.131 74.392C42.291 74.744 42.371 75.256 42.371 75.928C42.403 76.568 42.419 77.448 42.419 78.568C42.419 79.464 42.403 80.28 42.371 81.016C42.371 81.72 42.275 82.328 42.083 82.84C41.923 83.32 41.635 83.704 41.219 83.992C40.835 84.248 40.243 84.376 39.443 84.376C38.099 84.376 37.043 83.88 36.275 82.888C35.539 81.864 35.171 80.632 35.171 79.192C35.171 78.776 35.187 78.36 35.219 77.944C35.251 77.496 35.331 77.064 35.459 76.648ZM59.5351 56.104C59.2471 59.016 59.1031 61.928 59.1031 64.84C59.1351 67.752 59.1991 70.664 59.2951 73.576C59.3911 76.488 59.4551 79.4 59.4871 82.312C59.5511 85.224 59.4711 88.12 59.2471 91C59.4711 90.936 59.9191 90.92 60.5911 90.952C61.2631 90.984 61.9671 91 62.7031 91C63.4711 91.032 64.1751 91.032 64.8151 91C65.4551 91 65.8551 90.904 66.0151 90.712C65.9511 89.432 65.9031 87.88 65.8711 86.056C65.8391 84.2 65.8231 82.216 65.8231 80.104C65.8231 77.992 65.8231 75.8 65.8231 73.528C65.8551 71.256 65.8871 69.064 65.9191 66.952C65.9511 64.84 65.9831 62.856 66.0151 61C66.0471 59.144 66.0631 57.56 66.0631 56.248L59.5351 56.104ZM95.1058 67.096C94.0818 67.032 93.1698 66.984 92.3698 66.952C91.6018 66.92 90.9458 66.888 90.4018 66.856C90.3058 66.856 90.1298 66.856 89.8738 66.856C89.6178 66.856 89.3618 66.856 89.1058 66.856C88.8498 66.824 88.6098 66.824 88.3858 66.856C88.1938 66.856 88.0978 66.872 88.0978 66.904C88.0978 67.288 88.0498 67.672 87.9538 68.056C87.8898 68.408 87.8738 68.84 87.9058 69.352C87.6818 68.808 87.4098 68.392 87.0898 68.104C86.7698 67.784 86.4018 67.56 85.9858 67.432C85.5698 67.272 85.1058 67.192 84.5938 67.192C84.1138 67.16 83.5858 67.144 83.0098 67.144C81.8898 67.176 80.8338 67.48 79.8418 68.056C78.8498 68.6 77.9858 69.368 77.2498 70.36C76.5458 71.32 75.9858 72.472 75.5698 73.816C75.1538 75.16 74.9458 76.632 74.9458 78.232C74.9458 79.512 75.0738 80.904 75.3298 82.408C75.6178 83.912 76.0498 85.304 76.6258 86.584C77.2018 87.864 77.9218 88.936 78.7858 89.8C79.6818 90.664 80.7538 91.096 82.0018 91.096C83.1218 91.096 84.2578 90.824 85.4098 90.28C86.5938 89.736 87.5698 89.08 88.3378 88.312C88.3378 88.632 88.3058 88.904 88.2418 89.128C88.1778 89.352 88.1458 89.64 88.1458 89.992C88.1458 90.248 88.1778 90.472 88.2418 90.664C88.3378 90.856 88.4978 90.984 88.7218 91.048C89.0738 91.048 89.4098 91.032 89.7298 91C90.0818 90.936 90.4338 90.904 90.7858 90.904C91.2978 90.904 91.8098 90.936 92.3218 91C92.8658 91.032 93.3938 91.048 93.9058 91.048H94.4818C94.8658 90.984 95.0578 90.744 95.0578 90.328C95.0898 89.912 95.1058 89.496 95.1058 89.08C95.3298 85.656 95.3778 82.28 95.2498 78.952C95.1218 75.592 95.1058 72.184 95.2018 68.728V68.248C95.2018 68.056 95.1858 67.864 95.1538 67.672C95.1538 67.48 95.1378 67.288 95.1058 67.096ZM81.1378 76.648C81.2978 75.848 81.7458 75.144 82.4818 74.536C83.2498 73.896 84.2898 73.576 85.6018 73.576C86.2738 73.576 86.7698 73.624 87.0898 73.72C87.4418 73.816 87.6818 74.04 87.8098 74.392C87.9698 74.744 88.0498 75.256 88.0498 75.928C88.0818 76.568 88.0978 77.448 88.0978 78.568C88.0978 79.464 88.0818 80.28 88.0498 81.016C88.0498 81.72 87.9538 82.328 87.7618 82.84C87.6018 83.32 87.3138 83.704 86.8978 83.992C86.5138 84.248 85.9218 84.376 85.1218 84.376C83.7778 84.376 82.7218 83.88 81.9538 82.888C81.2178 81.864 80.8498 80.632 80.8498 79.192C80.8498 78.776 80.8658 78.36 80.8978 77.944C80.9298 77.496 81.0098 77.064 81.1378 76.648ZM111.454 69.592C111.422 69.144 111.406 68.744 111.406 68.392C111.438 68.04 111.422 67.592 111.358 67.048C111.358 66.952 111.23 66.904 110.974 66.904C110.718 66.872 110.43 66.872 110.11 66.904C109.79 66.936 109.47 66.984 109.15 67.048C108.83 67.08 108.606 67.096 108.478 67.096C108.094 67.128 107.774 67.16 107.518 67.192C107.262 67.192 107.022 67.192 106.798 67.192C106.574 67.192 106.334 67.192 106.078 67.192C105.822 67.16 105.502 67.128 105.118 67.096C104.99 71.32 104.958 75.4 105.022 79.336C105.118 83.272 105.166 87.208 105.166 91.144C105.934 91.08 106.574 91.064 107.086 91.096C107.598 91.128 108.062 91.144 108.478 91.144C108.894 91.176 109.294 91.176 109.678 91.144C110.094 91.112 110.574 91.016 111.118 90.856V90.664C111.246 89.608 111.31 88.552 111.31 87.496C111.31 86.44 111.278 85.384 111.214 84.328C111.182 83.24 111.15 82.168 111.118 81.112C111.086 80.024 111.102 78.92 111.166 77.8C111.23 76.936 111.454 76.296 111.838 75.88C112.222 75.432 112.654 75.144 113.134 75.016C113.614 74.856 114.094 74.824 114.574 74.92C115.086 74.984 115.47 75.08 115.726 75.208C115.758 75.24 115.79 75.256 115.822 75.256C115.854 75.256 115.886 75.272 115.918 75.304C116.174 75.496 116.366 75.768 116.494 76.12C116.654 76.472 116.766 76.872 116.83 77.32C116.926 77.768 116.99 78.232 117.022 78.712C117.054 79.16 117.086 79.576 117.118 79.96C117.182 80.824 117.214 81.752 117.214 82.744C117.246 83.736 117.246 84.728 117.214 85.72C117.214 86.712 117.214 87.672 117.214 88.6C117.214 89.528 117.246 90.36 117.31 91.096C118.43 91.096 119.422 91.096 120.286 91.096C121.182 91.128 122.19 91.064 123.31 90.904C123.246 89.816 123.23 88.552 123.262 87.112C123.294 85.672 123.326 84.184 123.358 82.648C123.39 81.08 123.406 79.544 123.406 78.04C123.438 76.504 123.422 75.096 123.358 73.816C123.326 72.536 123.214 71.448 123.022 70.552C122.862 69.624 122.622 69.016 122.302 68.728C121.63 68.152 120.878 67.752 120.046 67.528C119.214 67.304 118.35 67.208 117.454 67.24C116.59 67.272 115.742 67.432 114.91 67.72C114.078 68.008 113.326 68.392 112.654 68.872C112.494 69 112.286 69.128 112.03 69.256C111.806 69.384 111.614 69.496 111.454 69.592ZM137.911 79.624C137.911 79.304 137.911 79 137.911 78.712C137.911 78.392 137.943 78.072 138.007 77.752C138.135 77.016 138.359 76.328 138.679 75.688C139.031 75.016 139.447 74.408 139.927 73.864C140.311 73.544 140.743 73.32 141.223 73.192C141.735 73.032 142.247 72.984 142.759 73.048C143.271 73.112 143.735 73.288 144.151 73.576C144.599 73.832 144.919 74.2 145.111 74.68C145.431 75.896 145.607 77.176 145.639 78.52C145.703 79.832 145.735 81.128 145.735 82.408C145.703 82.696 145.655 83 145.591 83.32C145.559 83.608 145.495 83.896 145.399 84.184C145.303 84.44 145.175 84.68 145.015 84.904C144.855 85.096 144.631 85.24 144.343 85.336C143.511 85.592 142.615 85.656 141.655 85.528C140.695 85.368 139.927 84.936 139.351 84.232C138.391 83.08 137.911 81.688 137.911 80.056V79.624ZM146.215 100.6C146.599 100.568 147.015 100.504 147.463 100.408C147.911 100.312 148.359 100.136 148.807 99.88C149.255 99.656 149.703 99.336 150.151 98.92C150.631 98.504 151.095 97.944 151.543 97.24C151.863 96.728 152.007 96.088 151.975 95.32C151.943 94.584 151.943 93.832 151.975 93.064C152.167 88.456 152.247 83.976 152.215 79.624C152.215 75.24 152.151 71.048 152.023 67.048C150.935 67.048 149.847 67.032 148.759 67C147.671 66.936 146.599 66.968 145.543 67.096C145.447 67.256 145.399 67.48 145.399 67.768C145.431 68.024 145.447 68.296 145.447 68.584C145.479 68.84 145.479 69.064 145.447 69.256C145.447 69.416 145.383 69.464 145.255 69.4C144.871 68.504 144.231 67.896 143.335 67.576C142.471 67.224 141.527 67.08 140.503 67.144C138.455 67.272 136.887 67.864 135.799 68.92C134.711 69.944 133.911 71.224 133.399 72.76C132.919 74.264 132.647 75.88 132.583 77.608C132.519 79.336 132.487 80.952 132.487 82.456C132.551 83.448 132.679 84.424 132.871 85.384C133.063 86.312 133.383 87.208 133.831 88.072C134.119 88.68 134.487 89.176 134.935 89.56C135.383 89.944 135.879 90.248 136.423 90.472C136.999 90.696 137.591 90.856 138.199 90.952C138.839 91.048 139.463 91.096 140.071 91.096C140.519 91.064 140.999 91.048 141.511 91.048C142.023 91.048 142.519 91.016 142.999 90.952C143.511 90.888 143.975 90.776 144.391 90.616C144.839 90.456 145.223 90.2 145.543 89.848C145.479 90.424 145.479 90.984 145.543 91.528C145.575 91.784 145.575 92.072 145.543 92.392C145.511 92.744 145.479 93.08 145.447 93.4C145.255 94.296 144.839 94.936 144.199 95.32C143.591 95.704 142.951 95.864 142.279 95.8C141.639 95.736 141.047 95.448 140.503 94.936C139.991 94.456 139.735 93.8 139.735 92.968C139.351 92.904 138.871 92.84 138.295 92.776C137.751 92.744 137.175 92.712 136.567 92.68C135.991 92.68 135.431 92.696 134.887 92.728C134.343 92.792 133.911 92.888 133.591 93.016C133.559 93.272 133.543 93.576 133.543 93.928C133.575 94.28 133.623 94.648 133.687 95.032C133.783 95.416 133.879 95.784 133.975 96.136C134.103 96.52 134.231 96.824 134.359 97.048C135.095 98.136 136.055 99 137.239 99.64C138.423 100.28 139.767 100.6 141.271 100.6C142.583 100.6 143.655 100.616 144.487 100.648C145.319 100.68 145.895 100.664 146.215 100.6ZM181.39 67.096C180.366 67.032 179.454 66.984 178.654 66.952C177.886 66.92 177.23 66.888 176.686 66.856C176.59 66.856 176.414 66.856 176.158 66.856C175.902 66.856 175.646 66.856 175.39 66.856C175.134 66.824 174.894 66.824 174.67 66.856C174.478 66.856 174.382 66.872 174.382 66.904C174.382 67.288 174.334 67.672 174.238 68.056C174.174 68.408 174.158 68.84 174.19 69.352C173.966 68.808 173.694 68.392 173.374 68.104C173.054 67.784 172.686 67.56 172.27 67.432C171.854 67.272 171.39 67.192 170.878 67.192C170.398 67.16 169.87 67.144 169.294 67.144C168.174 67.176 167.118 67.48 166.126 68.056C165.134 68.6 164.27 69.368 163.534 70.36C162.83 71.32 162.27 72.472 161.854 73.816C161.438 75.16 161.23 76.632 161.23 78.232C161.23 79.512 161.358 80.904 161.614 82.408C161.902 83.912 162.334 85.304 162.91 86.584C163.486 87.864 164.206 88.936 165.07 89.8C165.966 90.664 167.038 91.096 168.286 91.096C169.406 91.096 170.542 90.824 171.694 90.28C172.878 89.736 173.854 89.08 174.622 88.312C174.622 88.632 174.59 88.904 174.526 89.128C174.462 89.352 174.43 89.64 174.43 89.992C174.43 90.248 174.462 90.472 174.526 90.664C174.622 90.856 174.782 90.984 175.006 91.048C175.358 91.048 175.694 91.032 176.014 91C176.366 90.936 176.718 90.904 177.07 90.904C177.582 90.904 178.094 90.936 178.606 91C179.15 91.032 179.678 91.048 180.19 91.048H180.766C181.15 90.984 181.342 90.744 181.342 90.328C181.374 89.912 181.39 89.496 181.39 89.08C181.614 85.656 181.662 82.28 181.534 78.952C181.406 75.592 181.39 72.184 181.486 68.728V68.248C181.486 68.056 181.47 67.864 181.438 67.672C181.438 67.48 181.422 67.288 181.39 67.096ZM167.422 76.648C167.582 75.848 168.03 75.144 168.766 74.536C169.534 73.896 170.574 73.576 171.886 73.576C172.558 73.576 173.054 73.624 173.374 73.72C173.726 73.816 173.966 74.04 174.094 74.392C174.254 74.744 174.334 75.256 174.334 75.928C174.366 76.568 174.382 77.448 174.382 78.568C174.382 79.464 174.366 80.28 174.334 81.016C174.334 81.72 174.238 82.328 174.046 82.84C173.886 83.32 173.598 83.704 173.182 83.992C172.798 84.248 172.206 84.376 171.406 84.376C170.062 84.376 169.006 83.88 168.238 82.888C167.502 81.864 167.134 80.632 167.134 79.192C167.134 78.776 167.15 78.36 167.182 77.944C167.214 77.496 167.294 77.064 167.422 76.648ZM197.738 69.592C197.706 69.144 197.69 68.744 197.69 68.392C197.722 68.04 197.706 67.592 197.642 67.048C197.642 66.952 197.514 66.904 197.258 66.904C197.002 66.872 196.714 66.872 196.394 66.904C196.074 66.936 195.754 66.984 195.434 67.048C195.114 67.08 194.89 67.096 194.762 67.096C194.378 67.128 194.058 67.16 193.802 67.192C193.546 67.192 193.306 67.192 193.082 67.192C192.858 67.192 192.618 67.192 192.362 67.192C192.106 67.16 191.786 67.128 191.402 67.096C191.274 71.32 191.242 75.4 191.306 79.336C191.402 83.272 191.45 87.208 191.45 91.144C192.218 91.08 192.858 91.064 193.37 91.096C193.882 91.128 194.346 91.144 194.762 91.144C195.178 91.176 195.578 91.176 195.962 91.144C196.378 91.112 196.858 91.016 197.402 90.856V90.664C197.53 89.608 197.594 88.552 197.594 87.496C197.594 86.44 197.562 85.384 197.498 84.328C197.466 83.24 197.434 82.168 197.402 81.112C197.37 80.024 197.386 78.92 197.45 77.8C197.514 76.936 197.738 76.296 198.122 75.88C198.506 75.432 198.938 75.144 199.418 75.016C199.898 74.856 200.378 74.824 200.858 74.92C201.37 74.984 201.754 75.08 202.01 75.208C202.042 75.24 202.074 75.256 202.106 75.256C202.138 75.256 202.17 75.272 202.202 75.304C202.458 75.496 202.65 75.768 202.778 76.12C202.938 76.472 203.05 76.872 203.114 77.32C203.21 77.768 203.274 78.232 203.306 78.712C203.338 79.16 203.37 79.576 203.402 79.96C203.466 80.824 203.498 81.752 203.498 82.744C203.53 83.736 203.53 84.728 203.498 85.72C203.498 86.712 203.498 87.672 203.498 88.6C203.498 89.528 203.53 90.36 203.594 91.096C204.714 91.096 205.706 91.096 206.57 91.096C207.466 91.128 208.474 91.064 209.594 90.904C209.53 89.816 209.514 88.552 209.546 87.112C209.578 85.672 209.61 84.184 209.642 82.648C209.674 81.08 209.69 79.544 209.69 78.04C209.722 76.504 209.706 75.096 209.642 73.816C209.61 72.536 209.498 71.448 209.306 70.552C209.146 69.624 208.906 69.016 208.586 68.728C207.914 68.152 207.162 67.752 206.33 67.528C205.498 67.304 204.634 67.208 203.738 67.24C202.874 67.272 202.026 67.432 201.194 67.72C200.362 68.008 199.61 68.392 198.938 68.872C198.778 69 198.57 69.128 198.314 69.256C198.09 69.384 197.898 69.496 197.738 69.592ZM238.787 67.096C237.763 67.032 236.851 66.984 236.051 66.952C235.283 66.92 234.627 66.888 234.083 66.856C233.987 66.856 233.811 66.856 233.555 66.856C233.299 66.856 233.043 66.856 232.787 66.856C232.531 66.824 232.291 66.824 232.067 66.856C231.875 66.856 231.779 66.872 231.779 66.904C231.779 67.288 231.731 67.672 231.635 68.056C231.571 68.408 231.555 68.84 231.587 69.352C231.363 68.808 231.091 68.392 230.771 68.104C230.451 67.784 230.083 67.56 229.667 67.432C229.251 67.272 228.787 67.192 228.275 67.192C227.795 67.16 227.267 67.144 226.691 67.144C225.571 67.176 224.515 67.48 223.523 68.056C222.531 68.6 221.667 69.368 220.931 70.36C220.227 71.32 219.667 72.472 219.251 73.816C218.835 75.16 218.627 76.632 218.627 78.232C218.627 79.512 218.755 80.904 219.011 82.408C219.299 83.912 219.731 85.304 220.307 86.584C220.883 87.864 221.603 88.936 222.467 89.8C223.363 90.664 224.435 91.096 225.683 91.096C226.803 91.096 227.939 90.824 229.091 90.28C230.275 89.736 231.251 89.08 232.019 88.312C232.019 88.632 231.987 88.904 231.923 89.128C231.859 89.352 231.827 89.64 231.827 89.992C231.827 90.248 231.859 90.472 231.923 90.664C232.019 90.856 232.179 90.984 232.403 91.048C232.755 91.048 233.091 91.032 233.411 91C233.763 90.936 234.115 90.904 234.467 90.904C234.979 90.904 235.491 90.936 236.003 91C236.547 91.032 237.075 91.048 237.587 91.048H238.163C238.547 90.984 238.739 90.744 238.739 90.328C238.771 89.912 238.787 89.496 238.787 89.08C239.011 85.656 239.059 82.28 238.931 78.952C238.803 75.592 238.787 72.184 238.883 68.728V68.248C238.883 68.056 238.867 67.864 238.835 67.672C238.835 67.48 238.819 67.288 238.787 67.096ZM224.819 76.648C224.979 75.848 225.427 75.144 226.163 74.536C226.931 73.896 227.971 73.576 229.283 73.576C229.955 73.576 230.451 73.624 230.771 73.72C231.123 73.816 231.363 74.04 231.491 74.392C231.651 74.744 231.731 75.256 231.731 75.928C231.763 76.568 231.779 77.448 231.779 78.568C231.779 79.464 231.763 80.28 231.731 81.016C231.731 81.72 231.635 82.328 231.443 82.84C231.283 83.32 230.995 83.704 230.579 83.992C230.195 84.248 229.603 84.376 228.803 84.376C227.459 84.376 226.403 83.88 225.635 82.888C224.899 81.864 224.531 80.632 224.531 79.192C224.531 78.776 224.547 78.36 224.579 77.944C224.611 77.496 224.691 77.064 224.819 76.648ZM254.271 67.144C253.247 67.016 252.095 67 250.815 67.096C249.535 67.16 248.319 67.128 247.167 67C248.159 70.616 249.167 74.36 250.191 78.232C251.215 82.104 252.063 85.976 252.735 89.848C252.895 90.904 252.799 91.672 252.447 92.152C252.127 92.632 251.647 92.936 251.007 93.064C250.367 93.224 249.631 93.272 248.799 93.208C247.999 93.144 247.215 93.112 246.447 93.112C246.287 94.008 246.223 95.048 246.255 96.232C246.255 97.448 246.415 98.536 246.735 99.496C249.455 99.656 251.743 99.448 253.599 98.872C255.487 98.296 257.055 97.448 258.303 96.328C259.583 95.24 260.607 93.944 261.375 92.44C262.143 90.936 262.767 89.352 263.247 87.688C263.759 86.024 264.175 84.328 264.495 82.6C264.847 80.872 265.231 79.224 265.647 77.656C266.031 75.992 266.415 74.296 266.799 72.568C267.215 70.808 267.679 68.968 268.191 67.048C266.847 66.952 265.615 66.936 264.495 67C263.375 67.064 262.271 67.08 261.183 67.048C260.799 68.008 260.479 69.272 260.223 70.84C259.967 72.408 259.727 74.04 259.503 75.736C259.311 77.432 259.103 79.064 258.879 80.632C258.655 82.2 258.367 83.464 258.015 84.424C257.663 83.464 257.311 82.248 256.959 80.776C256.607 79.272 256.271 77.704 255.951 76.072C255.631 74.44 255.327 72.84 255.039 71.272C254.751 69.672 254.495 68.296 254.271 67.144ZM282.65 66.856C281.626 66.888 280.746 66.888 280.01 66.856C279.274 66.824 278.698 66.792 278.282 66.76C278.122 66.76 277.882 66.744 277.562 66.712C277.274 66.68 277.066 66.68 276.938 66.712V66.76C276.746 68.648 276.65 70.6 276.65 72.616C276.65 74.6 276.682 76.616 276.746 78.664C276.81 80.712 276.842 82.776 276.842 84.856C276.874 86.936 276.81 88.984 276.65 91C276.874 90.936 277.322 90.92 277.994 90.952C278.666 90.984 279.37 91 280.106 91C280.874 91.032 281.578 91.032 282.218 91C282.858 91 283.258 90.904 283.418 90.712C283.194 86.84 283.13 82.888 283.226 78.856C283.354 74.824 283.434 70.872 283.466 67V66.856H282.65ZM276.746 56.392C276.714 57.864 276.73 59.112 276.794 60.136C276.89 61.128 276.938 62.088 276.938 63.016C277.546 62.984 278.202 63 278.906 63.064C279.61 63.096 280.266 63.128 280.874 63.16C281.514 63.16 282.058 63.128 282.506 63.064C282.986 63 283.29 62.872 283.418 62.68C283.418 62.2 283.402 61.656 283.37 61.048C283.37 60.408 283.354 59.8 283.322 59.224C283.322 58.616 283.306 58.072 283.274 57.592C283.274 57.08 283.274 56.728 283.274 56.536L276.746 56.392Z" fill="white"/>
</svg>
